<?xml version="1.0" encoding="UTF-8" standalone="no"?>
<!-- Created with Inkscape (http://www.inkscape.org/) -->

<svg
   xmlns:dc="http://purl.org/dc/elements/1.1/"
   xmlns:cc="http://creativecommons.org/ns#"
   xmlns:rdf="http://www.w3.org/1999/02/22-rdf-syntax-ns#"
   xmlns:svg="http://www.w3.org/2000/svg"
   xmlns="http://www.w3.org/2000/svg"
   xmlns:sodipodi="http://sodipodi.sourceforge.net/DTD/sodipodi-0.dtd"
   xmlns:inkscape="http://www.inkscape.org/namespaces/inkscape"
   sodipodi:docname="explication_V_1.svg"
   inkscape:version="0.91 r13725"
   version="1.1"
   id="svg2"
   viewBox="0 0 744.09448819 1052.3622047"
   height="297mm"
   width="210mm"
   inkscape:export-filename="/home/paul/Documents/stage/diapo/explication_V_1_update.png"
   inkscape:export-xdpi="145"
   inkscape:export-ydpi="145">
  <sodipodi:namedview
     inkscape:window-maximized="1"
     inkscape:window-y="27"
     inkscape:window-x="0"
     inkscape:window-height="1016"
     inkscape:window-width="1920"
     showgrid="false"
     inkscape:current-layer="layer1"
     inkscape:document-units="px"
     inkscape:cy="749.79277"
     inkscape:cx="157.11216"
     inkscape:zoom="0.98994949"
     inkscape:pageshadow="2"
     inkscape:pageopacity="0.0"
     borderopacity="1.0"
     bordercolor="#666666"
     pagecolor="#ffffff"
     id="base" />
  <defs
     id="defs4">
    <marker
       inkscape:stockid="Arrow1Mend"
       orient="auto"
       refY="0.0"
       refX="0.0"
       id="Arrow1Mend"
       style="overflow:visible;"
       inkscape:isstock="true">
      <path
         id="path4605"
         d="M 0.0,0.0 L 5.0,-5.0 L -12.5,0.0 L 5.0,5.0 L 0.0,0.0 z "
         style="fill-rule:evenodd;stroke:#000000;stroke-width:1pt;stroke-opacity:1;fill:#000000;fill-opacity:1"
         transform="scale(0.4) rotate(180) translate(10,0)" />
    </marker>
    <marker
       inkscape:stockid="Arrow1Send"
       orient="auto"
       refY="0.0"
       refX="0.0"
       id="Arrow1Send"
       style="overflow:visible;"
       inkscape:isstock="true">
      <path
         id="path4611"
         d="M 0.0,0.0 L 5.0,-5.0 L -12.5,0.0 L 5.0,5.0 L 0.0,0.0 z "
         style="fill-rule:evenodd;stroke:#000000;stroke-width:1pt;stroke-opacity:1;fill:#000000;fill-opacity:1"
         transform="scale(0.2) rotate(180) translate(6,0)" />
    </marker>
    <marker
       inkscape:stockid="Arrow2Send"
       orient="auto"
       refY="0.0"
       refX="0.0"
       id="Arrow2Send"
       style="overflow:visible;"
       inkscape:isstock="true">
      <path
         id="path4629"
         style="fill-rule:evenodd;stroke-width:0.625;stroke-linejoin:round;stroke:#000000;stroke-opacity:1;fill:#000000;fill-opacity:1"
         d="M 8.7185878,4.0337352 L -2.2072895,0.016013256 L 8.7185884,-4.0017078 C 6.9730900,-1.6296469 6.9831476,1.6157441 8.7185878,4.0337352 z "
         transform="scale(0.3) rotate(180) translate(-2.3,0)" />
    </marker>
    <marker
       inkscape:stockid="Arrow2Mend"
       orient="auto"
       refY="0.0"
       refX="0.0"
       id="marker4898"
       style="overflow:visible;"
       inkscape:isstock="true">
      <path
         id="path4900"
         style="fill-rule:evenodd;stroke-width:0.625;stroke-linejoin:round;stroke:#000000;stroke-opacity:1;fill:#000000;fill-opacity:1"
         d="M 8.7185878,4.0337352 L -2.2072895,0.016013256 L 8.7185884,-4.0017078 C 6.9730900,-1.6296469 6.9831476,1.6157441 8.7185878,4.0337352 z "
         transform="scale(0.6) rotate(180) translate(0,0)" />
    </marker>
    <marker
       inkscape:stockid="Arrow2Mend"
       orient="auto"
       refY="0.0"
       refX="0.0"
       id="Arrow2Mend"
       style="overflow:visible;"
       inkscape:isstock="true">
      <path
         id="path4623"
         style="fill-rule:evenodd;stroke-width:0.625;stroke-linejoin:round;stroke:#000000;stroke-opacity:1;fill:#000000;fill-opacity:1"
         d="M 8.7185878,4.0337352 L -2.2072895,0.016013256 L 8.7185884,-4.0017078 C 6.9730900,-1.6296469 6.9831476,1.6157441 8.7185878,4.0337352 z "
         transform="scale(0.6) rotate(180) translate(0,0)" />
    </marker>
    <marker
       inkscape:stockid="Arrow1Lend"
       orient="auto"
       refY="0.0"
       refX="0.0"
       id="Arrow1Lend"
       style="overflow:visible;"
       inkscape:isstock="true">
      <path
         id="path4599"
         d="M 0.0,0.0 L 5.0,-5.0 L -12.5,0.0 L 5.0,5.0 L 0.0,0.0 z "
         style="fill-rule:evenodd;stroke:#000000;stroke-width:1pt;stroke-opacity:1;fill:#000000;fill-opacity:1"
         transform="scale(0.8) rotate(180) translate(12.5,0)" />
    </marker>
  </defs>
  <metadata
     id="metadata7">
    <rdf:RDF>
      <cc:Work
         rdf:about="">
        <dc:format>image/svg+xml</dc:format>
        <dc:type
           rdf:resource="http://purl.org/dc/dcmitype/StillImage" />
        <dc:title />
      </cc:Work>
    </rdf:RDF>
  </metadata>
  <g
     inkscape:label="Calque 1"
     inkscape:groupmode="layer"
     id="layer1">
    <path
       sodipodi:nodetypes="cc"
       inkscape:connector-curvature="0"
       id="path5229"
       d="m 559.52411,127.65177 -60.27132,30.1361"
       style="fill:none;fill-rule:evenodd;stroke:#000000;stroke-width:5;stroke-linecap:butt;stroke-linejoin:miter;stroke-miterlimit:4;stroke-dasharray:20, 5;stroke-dashoffset:0;stroke-opacity:1" />
    <path
       style="fill:none;fill-rule:evenodd;stroke:#000000;stroke-width:5;stroke-linecap:butt;stroke-linejoin:miter;stroke-miterlimit:4;stroke-dasharray:20, 5;stroke-dashoffset:0;stroke-opacity:1"
       d="m 493.24437,193.05025 67.38464,0.35438"
       id="path5214"
       inkscape:connector-curvature="0"
       sodipodi:nodetypes="cc" />
    <path
       style="fill:none;fill-rule:evenodd;stroke:#000000;stroke-width:5;stroke-linecap:butt;stroke-linejoin:miter;stroke-miterlimit:4;stroke-dasharray:20, 5;stroke-dashoffset:0;stroke-opacity:1"
       d="m 559.52411,258.80314 -60.27132,-30.1361"
       id="path5227"
       inkscape:connector-curvature="0"
       sodipodi:nodetypes="cc" />
    <circle
       style="fill:#f6a0bd;fill-opacity:1;stroke:#aa1044;stroke-width:7.97729158;stroke-miterlimit:4;stroke-dasharray:none;stroke-opacity:1"
       id="circle4159"
       cx="434.76801"
       cy="189.05133"
       r="71.795624"
       inkscape:export-filename="/home/paul/Documents/stage/rapport/images/mdp_tree.png"
       inkscape:export-xdpi="145"
       inkscape:export-ydpi="145" />
    <flowRoot
       xml:space="preserve"
       id="flowRoot4215"
       style="font-style:normal;font-variant:normal;font-weight:normal;font-stretch:normal;font-size:45px;line-height:125%;font-family:Saab;-inkscape-font-specification:Saab;letter-spacing:0px;word-spacing:0px;fill:#000000;fill-opacity:1;stroke:none;stroke-width:1px;stroke-linecap:butt;stroke-linejoin:miter;stroke-opacity:1"
       transform="translate(251.43716,-162.24068)"><flowRegion
         id="flowRegion4217"><rect
           id="rect4219"
           width="67.142853"
           height="65.714287"
           x="80"
           y="289.50507"
           style="font-style:normal;font-variant:normal;font-weight:normal;font-stretch:normal;font-size:45px;font-family:Saab;-inkscape-font-specification:Saab" /></flowRegion><flowPara
         id="flowPara4221"
         style="font-style:normal;font-variant:normal;font-weight:normal;font-stretch:normal;font-size:45px;font-family:monospace;-inkscape-font-specification:monospace">1</flowPara><flowPara
         id="flowPara4223" /></flowRoot>    <path
       sodipodi:nodetypes="cc"
       inkscape:connector-curvature="0"
       id="path4590"
       d="m 272.74119,187.67163 78.28682,0"
       style="fill:none;fill-rule:evenodd;stroke:#000000;stroke-width:5;stroke-linecap:butt;stroke-linejoin:miter;stroke-miterlimit:4;stroke-dasharray:none;stroke-opacity:1;marker-end:url(#Arrow1Mend)" />
    <circle
       style="fill:#99a4e1;fill-opacity:1;stroke:#1f2c6c;stroke-width:7.87095976;stroke-miterlimit:4;stroke-dasharray:none;stroke-opacity:1"
       id="circle4161"
       cx="199.92487"
       cy="189.05133"
       r="70.838638"
       inkscape:export-filename="/home/paul/Documents/stage/rapport/images/mdp_tree.png"
       inkscape:export-xdpi="145"
       inkscape:export-ydpi="145" />
    <text
       xml:space="preserve"
       style="font-style:normal;font-weight:normal;font-size:40px;line-height:125%;font-family:sans-serif;letter-spacing:0px;word-spacing:0px;fill:#000000;fill-opacity:1;stroke:none;stroke-width:1px;stroke-linecap:butt;stroke-linejoin:miter;stroke-opacity:1"
       x="107.07617"
       y="348.28589"
       id="text5276"
       sodipodi:linespacing="125%"><tspan
         sodipodi:role="line"
         id="tspan5278"
         x="107.07617"
         y="348.28589" /></text>
    <g
       transform="matrix(0.67328966,0,0,0.67328966,169.26824,-38.393229)"
       id="g4580">
      <g
         style="font-style:normal;font-variant:normal;font-weight:normal;font-stretch:normal;letter-spacing:normal;word-spacing:normal;text-anchor:start;fill:none;fill-opacity:1;fill-rule:evenodd;stroke:#000000;stroke-linecap:butt;stroke-linejoin:miter;stroke-miterlimit:10.43299961;stroke-dasharray:none;stroke-dashoffset:0;stroke-opacity:1"
         id="g4582"
         transform="matrix(1.0629921,0,0,-1.0629921,-186.02362,789.27165)"
         xml:space="preserve"
         stroke-miterlimit="10.433"
         font-style="normal"
         font-variant="normal"
         font-weight="normal"
         font-stretch="normal"
         font-size-adjust="none"
         letter-spacing="normal"
         word-spacing="normal"><path
           style="fill:#000000;stroke-width:0"
           inkscape:connector-curvature="0"
           d="m 487.28,434.34 0.23,0.36 0.22,0.33 0.23,0.31 0.22,0.29 0.22,0.28 0.22,0.25 0.21,0.24 0.22,0.22 0.21,0.2 0.21,0.18 0.21,0.18 0.21,0.15 0.2,0.15 0.2,0.13 0.21,0.11 0.19,0.11 0.2,0.1 0.2,0.08 0.19,0.08 0.2,0.06 0.19,0.06 0.19,0.05 0.18,0.04 0.19,0.04 0.18,0.03 0.19,0.02 0.36,0.04 0.35,0.03 0.35,0.02 c 0.6,0.05 0.64,0.9 0.64,0.95 0,0.39 -0.24,0.59 -0.64,0.59 l -9.02,0 c -0.3,0 -0.94,0 -0.94,-0.95 0,-0.54 0.44,-0.59 0.79,-0.59 1.35,-0.1 2.3,-0.6 2.3,-1.64 0,-0.75 -0.75,-1.85 -0.75,-1.9 l -15.29,-24.31 -3.39,26.35 c 0,0.85 1.14,1.5 3.43,1.5 0.7,0 1.25,0 1.25,0.99 0,0.45 -0.4,0.55 -0.7,0.55 -1.99,0 -4.13,-0.15 -6.18,-0.15 -0.89,0 -1.84,0.05 -2.73,0.05 -0.9,0 -1.85,0.1 -2.7,0.1 -0.34,0 -0.94,0 -0.94,-0.95 0,-0.59 0.45,-0.59 1.25,-0.59 2.78,0 2.84,-0.45 2.98,-1.69 l 3.94,-30.74 c 0.15,-1 0.35,-1.15 1,-1.15 0.79,0 0.99,0.25 1.39,0.9 z"
           id="path4584" /><path
           style="fill:#000000;stroke-width:0"
           inkscape:connector-curvature="0"
           d="m 544.22,422.29 0.14,0 0.15,0 0.15,0.01 0.07,0 0.07,0 0.07,0.01 0.08,0.01 0.07,0.01 0.07,0.01 0.06,0.02 0.07,0.01 0.07,0.02 0.06,0.02 0.06,0.03 0.06,0.03 0.05,0.03 0.06,0.03 0.05,0.04 0.04,0.04 0.05,0.05 0.03,0.05 0.02,0.03 0.02,0.02 0.02,0.03 0.01,0.03 0.02,0.03 0.01,0.04 0.01,0.03 0.01,0.04 0.01,0.03 0.01,0.04 0.01,0.04 0,0.04 0.01,0.04 0,0.04 0,0.05 0,0.05 c 0,0.99 -0.94,0.99 -1.64,0.99 l -29.84,0 c -0.7,0 -1.64,0 -1.64,-0.99 0,-1 0.94,-1 1.69,-1 z"
           id="path4586" /><path
           style="fill:#000000;stroke-width:0"
           inkscape:connector-curvature="0"
           d="m 544.27,412.62 0.13,0.01 0.14,0 0.14,0 0.07,0.01 0.07,0 0.07,0.01 0.07,0.01 0.07,0.01 0.07,0.01 0.06,0.01 0.07,0.02 0.06,0.02 0.06,0.02 0.06,0.02 0.06,0.03 0.06,0.03 0.05,0.04 0.05,0.04 0.04,0.04 0.05,0.04 0.02,0.03 0.02,0.03 0.01,0.02 0.02,0.03 0.02,0.03 0.01,0.03 0.02,0.03 0.01,0.03 0.01,0.04 0.01,0.03 0.01,0.04 0.01,0.04 0.01,0.04 0,0.04 0.01,0.04 0,0.04 0,0.05 0,0.04 c 0,1 -0.94,1 -1.69,1 l -29.74,0 c -0.75,0 -1.69,0 -1.69,-1 0,-1 0.94,-1 1.64,-1 z"
           id="path4588" /><path
           style="fill:#000000;stroke-width:0"
           inkscape:connector-curvature="0"
           d="m 568.33,409.84 5.27,5.12 c 7.78,6.88 10.77,9.57 10.77,14.55 0,5.68 -4.49,9.67 -10.57,9.67 -5.62,0 -9.31,-4.59 -9.31,-9.02 0,-2.79 2.49,-2.79 2.64,-2.79 0.85,0 2.59,0.6 2.59,2.64 0,1.29 -0.9,2.59 -2.64,2.59 -0.4,0 -0.5,0 -0.65,-0.05 1.15,3.24 3.84,5.08 6.73,5.08 4.53,0 6.67,-4.03 6.67,-8.12 0,-3.98 -2.49,-7.92 -5.23,-11.01 l -9.56,-10.66 c -0.55,-0.54 -0.55,-0.64 -0.55,-1.84 l 18.48,0 1.4,8.67 -1.25,0 c -0.25,-1.5 -0.6,-3.69 -1.1,-4.44 -0.34,-0.39 -3.63,-0.39 -4.73,-0.39 z"
           id="path4591" /><path
           style="fill:#000000;stroke-width:0"
           inkscape:connector-curvature="0"
           d="m 597.11,406.05 0,0.31 -0.01,0.29 -0.02,0.29 -0.02,0.28 -0.04,0.27 -0.03,0.26 -0.05,0.26 -0.05,0.24 -0.06,0.24 -0.07,0.23 -0.07,0.22 -0.07,0.21 -0.09,0.2 -0.09,0.19 -0.09,0.18 -0.1,0.18 -0.11,0.16 -0.11,0.15 -0.12,0.15 -0.12,0.13 -0.13,0.13 -0.13,0.11 -0.14,0.1 -0.15,0.1 -0.15,0.08 -0.15,0.07 -0.16,0.06 -0.16,0.05 -0.17,0.04 -0.17,0.03 -0.17,0.02 -0.18,0 c -1.65,0 -2.65,-1.24 -2.65,-2.64 0,-1.34 1,-2.64 2.65,-2.64 0.59,0 1.24,0.2 1.74,0.65 0.15,0.1 0.2,0.15 0.25,0.15 0.05,0 0.1,-0.05 0.1,-0.75 0,-3.69 -1.75,-6.67 -3.39,-8.32 -0.55,-0.55 -0.55,-0.65 -0.55,-0.8 0,-0.34 0.25,-0.54 0.5,-0.54 0.55,0 4.53,3.83 4.53,9.66 z"
           id="path4593" /><path
           style="fill:#000000;stroke-width:0"
           inkscape:connector-curvature="0"
           d="m 615.57,422.34 0,1.2 c 0,12.6 6.18,14.39 8.72,14.39 1.2,0 3.29,-0.3 4.39,-1.99 -0.75,0 -2.74,0 -2.74,-2.24 0,-1.55 1.19,-2.29 2.29,-2.29 0.79,0 2.29,0.44 2.29,2.39 0,2.99 -2.19,5.38 -6.33,5.38 -6.37,0 -13.1,-6.43 -13.1,-17.44 0,-13.3 5.78,-16.84 10.41,-16.84 5.53,0 10.27,4.69 10.27,11.26 0,6.33 -4.44,11.11 -9.97,11.11 l -0.05,-1.15 c 0.8,0 3.09,0 4.64,-3.08 0.89,-1.85 0.89,-4.39 0.89,-6.83 0,-2.39 0,-4.88 -0.85,-6.67 -1.49,-2.99 -3.78,-3.24 -4.93,-3.24 l 0,0 c -3.14,0 -4.63,2.99 -4.93,3.74 -0.89,2.34 -0.89,6.32 -0.89,7.22 0,3.88 1.59,8.86 6.07,8.86 l 0.05,1.15 c -3.39,0 -5.23,-2.54 -6.23,-4.93 z"
           id="path4595" /></g>    </g>
    <g
       id="g6271"
       transform="matrix(0.59983509,0,0,0.59983509,-40.908051,-15.012572)">
      <g
         word-spacing="normal"
         letter-spacing="normal"
         font-size-adjust="none"
         font-stretch="normal"
         font-weight="normal"
         font-variant="normal"
         font-style="normal"
         stroke-miterlimit="10.433"
         xml:space="preserve"
         transform="matrix(1.0629921,0,0,-1.0629921,-186.02362,789.27165)"
         id="g6273"
         style="font-style:normal;font-variant:normal;font-weight:normal;font-stretch:normal;letter-spacing:normal;word-spacing:normal;text-anchor:start;fill:none;fill-opacity:1;fill-rule:evenodd;stroke:#000000;stroke-linecap:butt;stroke-linejoin:miter;stroke-miterlimit:10.43299961;stroke-dasharray:none;stroke-dashoffset:0;stroke-opacity:1"><path
           id="path6275"
           d="m 487.28,434.34 0.23,0.36 0.22,0.33 0.23,0.31 0.22,0.29 0.22,0.28 0.22,0.25 0.21,0.24 0.22,0.22 0.21,0.2 0.21,0.18 0.21,0.18 0.21,0.15 0.2,0.15 0.2,0.13 0.21,0.11 0.19,0.11 0.2,0.1 0.2,0.08 0.19,0.08 0.2,0.06 0.19,0.06 0.19,0.05 0.18,0.04 0.19,0.04 0.18,0.03 0.19,0.02 0.36,0.04 0.35,0.03 0.35,0.02 c 0.6,0.05 0.64,0.9 0.64,0.95 0,0.39 -0.24,0.59 -0.64,0.59 l -9.02,0 c -0.3,0 -0.94,0 -0.94,-0.95 0,-0.54 0.44,-0.59 0.79,-0.59 1.35,-0.1 2.3,-0.6 2.3,-1.64 0,-0.75 -0.75,-1.85 -0.75,-1.9 l -15.29,-24.31 -3.39,26.35 c 0,0.85 1.14,1.5 3.43,1.5 0.7,0 1.25,0 1.25,0.99 0,0.45 -0.4,0.55 -0.7,0.55 -1.99,0 -4.13,-0.15 -6.18,-0.15 -0.89,0 -1.84,0.05 -2.73,0.05 -0.9,0 -1.85,0.1 -2.7,0.1 -0.34,0 -0.94,0 -0.94,-0.95 0,-0.59 0.45,-0.59 1.25,-0.59 2.78,0 2.84,-0.45 2.98,-1.69 l 3.94,-30.74 c 0.15,-1 0.35,-1.15 1,-1.15 0.79,0 0.99,0.25 1.39,0.9 z"
           inkscape:connector-curvature="0"
           style="fill:#000000;stroke-width:0" /><path
           id="path6277"
           d="m 544.22,422.29 0.14,0 0.15,0 0.15,0.01 0.07,0 0.07,0 0.07,0.01 0.08,0.01 0.07,0.01 0.07,0.01 0.06,0.02 0.07,0.01 0.07,0.02 0.06,0.02 0.06,0.03 0.06,0.03 0.05,0.03 0.06,0.03 0.05,0.04 0.04,0.04 0.05,0.05 0.03,0.05 0.02,0.03 0.02,0.02 0.02,0.03 0.01,0.03 0.02,0.03 0.01,0.04 0.01,0.03 0.01,0.04 0.01,0.03 0.01,0.04 0.01,0.04 0,0.04 0.01,0.04 0,0.04 0,0.05 0,0.05 c 0,0.99 -0.94,0.99 -1.64,0.99 l -29.84,0 c -0.7,0 -1.64,0 -1.64,-0.99 0,-1 0.94,-1 1.69,-1 z"
           inkscape:connector-curvature="0"
           style="fill:#000000;stroke-width:0" /><path
           id="path6279"
           d="m 544.27,412.62 0.13,0.01 0.14,0 0.14,0 0.07,0.01 0.07,0 0.07,0.01 0.07,0.01 0.07,0.01 0.07,0.01 0.06,0.01 0.07,0.02 0.06,0.02 0.06,0.02 0.06,0.02 0.06,0.03 0.06,0.03 0.05,0.04 0.05,0.04 0.04,0.04 0.05,0.04 0.02,0.03 0.02,0.03 0.01,0.02 0.02,0.03 0.02,0.03 0.01,0.03 0.02,0.03 0.01,0.03 0.01,0.04 0.01,0.03 0.01,0.04 0.01,0.04 0.01,0.04 0,0.04 0.01,0.04 0,0.04 0,0.05 0,0.04 c 0,1 -0.94,1 -1.69,1 l -29.74,0 c -0.75,0 -1.69,0 -1.69,-1 0,-1 0.94,-1 1.64,-1 z"
           inkscape:connector-curvature="0"
           style="fill:#000000;stroke-width:0" /><path
           id="path6281"
           d="m 584.91,421.94 0,0.75 -0.01,0.74 -0.02,0.75 -0.03,0.74 -0.05,0.75 -0.06,0.74 -0.07,0.74 -0.1,0.73 -0.11,0.73 -0.14,0.73 -0.16,0.72 -0.19,0.72 -0.22,0.71 -0.24,0.71 -0.28,0.7 -0.15,0.35 -0.16,0.35 c -2.29,4.78 -6.37,5.58 -8.47,5.58 -2.98,0 -6.62,-1.3 -8.67,-5.93 -1.59,-3.44 -1.84,-7.32 -1.84,-11.31 0,-3.74 0.2,-8.22 2.24,-12.01 2.15,-4.03 5.78,-5.03 8.22,-5.03 l 0,1.1 c -1.94,0 -4.88,1.25 -5.78,6.03 -0.54,2.99 -0.54,7.57 -0.54,10.51 0,3.19 0,6.47 0.4,9.16 0.94,5.93 4.68,6.38 5.92,6.38 1.65,0 4.94,-0.9 5.88,-5.83 0.5,-2.79 0.5,-6.57 0.5,-9.71 0,-3.74 0,-7.13 -0.55,-10.31 -0.75,-4.73 -3.58,-6.23 -5.83,-6.23 l 0,0 0,-1.1 c 2.69,0 6.48,1.05 8.67,5.78 1.59,3.44 1.84,7.32 1.84,11.26 z"
           inkscape:connector-curvature="0"
           style="fill:#000000;stroke-width:0" /><path
           id="path6283"
           d="m 596.56,408.64 0,0.14 -0.01,0.13 -0.02,0.13 -0.02,0.13 -0.03,0.13 -0.04,0.12 -0.04,0.12 -0.05,0.12 -0.05,0.12 -0.06,0.11 -0.06,0.11 -0.07,0.11 -0.08,0.1 -0.07,0.1 -0.09,0.1 -0.09,0.09 -0.09,0.09 -0.09,0.08 -0.1,0.08 -0.11,0.08 -0.1,0.07 -0.11,0.06 -0.12,0.06 -0.11,0.05 -0.12,0.05 -0.13,0.04 -0.12,0.04 -0.13,0.03 -0.13,0.02 -0.13,0.02 -0.13,0.01 -0.13,0 c -1.45,0 -2.65,-1.19 -2.65,-2.64 0,-1.44 1.2,-2.64 2.65,-2.64 1.44,0 2.63,1.2 2.63,2.64 z"
           inkscape:connector-curvature="0"
           style="fill:#000000;stroke-width:0" /><path
           id="path6285"
           d="m 623.91,421.94 0,0.75 -0.01,0.74 -0.02,0.75 -0.03,0.74 -0.05,0.75 -0.06,0.74 -0.07,0.74 -0.1,0.73 -0.11,0.73 -0.14,0.73 -0.16,0.72 -0.19,0.72 -0.22,0.71 -0.24,0.71 -0.28,0.7 -0.15,0.35 -0.16,0.35 c -2.29,4.78 -6.37,5.58 -8.47,5.58 -2.98,0 -6.62,-1.3 -8.67,-5.93 -1.59,-3.44 -1.84,-7.32 -1.84,-11.31 0,-3.74 0.2,-8.22 2.24,-12.01 2.15,-4.03 5.78,-5.03 8.22,-5.03 l 0,1.1 c -1.94,0 -4.88,1.25 -5.78,6.03 -0.54,2.99 -0.54,7.57 -0.54,10.51 0,3.19 0,6.47 0.4,9.16 0.94,5.93 4.68,6.38 5.92,6.38 1.65,0 4.94,-0.9 5.88,-5.83 0.5,-2.79 0.5,-6.57 0.5,-9.71 0,-3.74 0,-7.13 -0.55,-10.31 -0.75,-4.73 -3.58,-6.23 -5.83,-6.23 l 0,0 0,-1.1 c 2.69,0 6.48,1.05 8.67,5.78 1.59,3.44 1.84,7.32 1.84,11.26 z"
           inkscape:connector-curvature="0"
           style="fill:#000000;stroke-width:0" /><path
           id="path6287"
           d="m 640.45,423.54 0.37,0.13 0.38,0.14 0.36,0.16 0.36,0.17 0.35,0.18 0.34,0.19 0.33,0.2 0.32,0.21 0.31,0.22 0.3,0.23 0.3,0.24 0.28,0.25 0.27,0.26 0.26,0.27 0.25,0.27 0.23,0.29 0.23,0.29 0.21,0.3 0.2,0.3 0.19,0.31 0.17,0.32 0.16,0.33 0.15,0.33 0.13,0.33 0.12,0.34 0.1,0.35 0.09,0.35 0.08,0.35 0.05,0.36 0.04,0.36 0.03,0.36 0.01,0.37 c 0,4.09 -4.39,6.88 -9.17,6.88 -5.03,0 -8.81,-2.99 -8.81,-6.78 0,-1.64 1.09,-2.59 2.54,-2.59 1.54,0 2.54,1.1 2.54,2.54 0,2.49 -2.34,2.49 -3.09,2.49 1.54,2.44 4.83,3.09 6.62,3.09 2.05,0 4.79,-1.09 4.79,-5.58 0,-0.6 -0.1,-3.49 -1.4,-5.68 -1.49,-2.39 -3.19,-2.54 -4.43,-2.59 -0.4,-0.05 -1.6,-0.15 -1.94,-0.15 -0.4,-0.05 -0.75,-0.1 -0.75,-0.59 0,-0.55 0.35,-0.55 1.2,-0.55 l 2.19,0 c 4.08,0 5.92,-3.39 5.92,-8.27 0,-6.78 -3.43,-8.22 -5.63,-8.22 -2.14,0 -5.87,0.84 -7.62,3.79 1.75,-0.25 3.29,0.84 3.29,2.73 0,1.8 -1.34,2.79 -2.79,2.79 -1.19,0 -2.79,-0.69 -2.79,-2.88 0,-4.54 4.64,-7.83 10.07,-7.83 6.07,0 10.61,4.54 10.61,9.62 0,4.08 -3.15,7.97 -8.32,9.02 z"
           inkscape:connector-curvature="0"
           style="fill:#000000;stroke-width:0" /></g>    </g>
  </g>
  <g
     transform="matrix(0.84737338,0,0,0.84737338,-247.91206,13.177398)"
     id="g5577">
    <g
       style="font-style:normal;font-variant:normal;font-weight:normal;font-stretch:normal;letter-spacing:normal;word-spacing:normal;text-anchor:start;fill:none;fill-opacity:1;fill-rule:evenodd;stroke:#000000;stroke-linecap:butt;stroke-linejoin:miter;stroke-miterlimit:10.43299961;stroke-dasharray:none;stroke-dashoffset:0;stroke-opacity:1"
       id="g5579"
       transform="matrix(1.0629921,0,0,-1.0629921,-186.02362,789.27165)"
       xml:space="preserve"
       stroke-miterlimit="10.433"
       font-style="normal"
       font-variant="normal"
       font-weight="normal"
       font-stretch="normal"
       font-size-adjust="none"
       letter-spacing="normal"
       word-spacing="normal"><path
         style="fill:#000000;stroke-width:0"
         inkscape:connector-curvature="0"
         d="m 487.28,434.34 0.23,0.36 0.22,0.33 0.23,0.31 0.22,0.29 0.22,0.28 0.22,0.25 0.21,0.24 0.22,0.22 0.21,0.2 0.21,0.18 0.21,0.18 0.21,0.15 0.2,0.15 0.2,0.13 0.21,0.11 0.19,0.11 0.2,0.1 0.2,0.08 0.19,0.08 0.2,0.06 0.19,0.06 0.19,0.05 0.18,0.04 0.19,0.04 0.18,0.03 0.19,0.02 0.36,0.04 0.35,0.03 0.35,0.02 c 0.6,0.05 0.64,0.9 0.64,0.95 0,0.39 -0.24,0.59 -0.64,0.59 l -9.02,0 c -0.3,0 -0.94,0 -0.94,-0.95 0,-0.54 0.44,-0.59 0.79,-0.59 1.35,-0.1 2.3,-0.6 2.3,-1.64 0,-0.75 -0.75,-1.85 -0.75,-1.9 l -15.29,-24.31 -3.39,26.35 c 0,0.85 1.14,1.5 3.43,1.5 0.7,0 1.25,0 1.25,0.99 0,0.45 -0.4,0.55 -0.7,0.55 -1.99,0 -4.13,-0.15 -6.18,-0.15 -0.89,0 -1.84,0.05 -2.73,0.05 -0.9,0 -1.85,0.1 -2.7,0.1 -0.34,0 -0.94,0 -0.94,-0.95 0,-0.59 0.45,-0.59 1.25,-0.59 2.78,0 2.84,-0.45 2.98,-1.69 l 3.94,-30.74 c 0.15,-1 0.35,-1.15 1,-1.15 0.79,0 0.99,0.25 1.39,0.9 z"
         id="path5581" /><path
         style="fill:#000000;stroke-width:0"
         inkscape:connector-curvature="0"
         d="m 512.49,394.04 0,0.03 0,0.03 -0.01,0.01 0,0.02 0,0.01 -0.01,0.02 0,0.02 -0.01,0.01 -0.01,0.02 -0.01,0.02 -0.01,0.03 -0.01,0.02 -0.02,0.02 -0.02,0.03 -0.02,0.03 -0.02,0.03 -0.03,0.03 -0.03,0.04 -0.01,0.02 -0.02,0.02 -0.02,0.02 -0.02,0.02 -0.02,0.02 -0.02,0.03 -0.02,0.02 -0.02,0.02 -0.02,0.03 -0.03,0.02 -0.02,0.03 -0.03,0.03 -0.02,0.03 -0.03,0.03 -0.03,0.03 -0.03,0.03 -0.03,0.03 -0.03,0.03 -0.04,0.04 -0.03,0.03 -0.04,0.04 -0.03,0.03 -0.04,0.04 -0.04,0.04 c -6.23,6.28 -7.82,15.69 -7.82,23.31 0,8.67 1.89,17.34 8.02,23.57 0.65,0.59 0.65,0.69 0.65,0.84 0,0.35 -0.2,0.5 -0.5,0.5 -0.5,0 -4.98,-3.39 -7.92,-9.72 -2.54,-5.47 -3.14,-11 -3.14,-15.19 0,-3.88 0.55,-9.91 3.29,-15.54 2.99,-6.12 7.27,-9.36 7.77,-9.36 0.3,0 0.5,0.15 0.5,0.49 z"
         id="path5583" /><path
         style="fill:#000000;stroke-width:0"
         inkscape:connector-curvature="0"
         d="m 526.91,440.02 0,0.01 0,0 0,0.01 0,0.01 -0.01,0.01 0,0.01 0,0.02 0,0.02 0,0.02 -0.01,0.02 0,0.02 -0.01,0.02 -0.01,0.03 -0.01,0.02 -0.01,0.03 -0.01,0.02 -0.01,0.02 -0.02,0.03 -0.02,0.02 -0.02,0.03 -0.02,0.02 -0.01,0.01 -0.02,0.01 -0.01,0.01 -0.01,0.01 -0.02,0.01 -0.01,0.01 -0.02,0.01 -0.02,0.01 -0.01,0.01 -0.02,0.01 -0.02,0.01 -0.02,0 -0.02,0.01 -0.02,0.01 -0.03,0 -0.02,0.01 -0.02,0 -0.03,0.01 -0.02,0 -0.03,0 -0.03,0.01 -0.02,0 -0.03,0 -0.03,0 c -1.15,0 -4.78,-0.4 -6.08,-0.5 -0.4,-0.05 -0.95,-0.1 -0.95,-1 0,-0.59 0.45,-0.59 1.2,-0.59 2.39,0 2.49,-0.35 2.49,-0.85 0,-0.35 -0.45,-2.04 -0.7,-3.09 l -4.08,-16.24 c -0.6,-2.49 -0.8,-3.28 -0.8,-5.03 0,-4.73 2.64,-7.82 6.33,-7.82 l 0,1.1 c -1.7,0 -3.34,1.34 -3.34,5.03 0,0.95 0,1.89 0.8,5.03 l 1.09,4.58 c 0.3,1.1 0.3,1.2 0.75,1.75 2.44,3.24 4.68,3.98 5.98,3.98 1.79,0 3.14,-1.49 3.14,-4.68 0,-2.94 -1.65,-8.67 -2.54,-10.56 -1.65,-3.34 -3.94,-5.13 -5.88,-5.13 l 0,-1.1 c 5.88,0 12,7.43 12,14.6 0,4.53 -2.64,7.97 -6.62,7.97 -2.29,0 -4.33,-1.45 -5.83,-2.99 z"
         id="path5585" /><path
         style="fill:#000000;stroke-width:0"
         inkscape:connector-curvature="0"
         d="m 550.4,418.45 -0.01,0.37 0,0.39 -0.01,0.39 -0.01,0.41 -0.04,0.84 -0.06,0.88 -0.09,0.92 -0.1,0.94 -0.14,0.98 -0.16,1 -0.2,1.02 -0.23,1.04 -0.27,1.05 -0.3,1.06 -0.35,1.06 -0.39,1.07 -0.22,0.53 -0.22,0.54 -0.24,0.53 -0.25,0.53 c -2.99,6.12 -7.27,9.36 -7.77,9.36 -0.3,0 -0.5,-0.2 -0.5,-0.5 0,-0.15 0,-0.25 0.94,-1.15 4.89,-4.92 7.73,-12.85 7.73,-23.26 0,-8.52 -1.85,-17.28 -8.02,-23.56 -0.65,-0.6 -0.65,-0.69 -0.65,-0.85 0,-0.29 0.2,-0.49 0.5,-0.49 0.5,0 4.98,3.38 7.92,9.71 2.54,5.48 3.14,11.01 3.14,15.19 z"
         id="path5587" /><path
         style="fill:#000000;stroke-width:0"
         inkscape:connector-curvature="0"
         d="m 615.23,417.46 0.17,0 0.17,0 0.16,0 0.08,0.01 0.08,0 0.08,0.01 0.07,0.01 0.08,0.01 0.07,0.01 0.07,0.01 0.07,0.02 0.07,0.02 0.06,0.02 0.07,0.03 0.05,0.02 0.06,0.04 0.05,0.03 0.05,0.04 0.05,0.04 0.04,0.05 0.04,0.05 0.03,0.05 0.02,0.03 0.01,0.03 0.02,0.03 0.01,0.04 0.01,0.03 0.01,0.03 0.01,0.04 0.01,0.04 0.01,0.04 0,0.04 0.01,0.04 0,0.04 0,0.05 0,0.04 c 0,1 -0.89,1 -1.79,1 l -37.01,0 c 2.74,2.09 4.08,4.14 4.48,4.78 2.25,3.44 2.64,6.58 2.64,6.63 0,0.59 -0.59,0.59 -0.99,0.59 -0.85,0 -0.9,-0.09 -1.1,-0.99 -1.15,-4.88 -4.09,-9.02 -9.72,-11.36 -0.54,-0.2 -0.74,-0.3 -0.74,-0.65 0,-0.34 0.25,-0.45 0.74,-0.65 5.19,-2.14 8.52,-6.02 9.77,-11.6 0.15,-0.6 0.2,-0.75 1.05,-0.75 0.4,0 0.99,0 0.99,0.6 0,0.1 -0.44,3.24 -2.54,6.57 -1,1.5 -2.44,3.24 -4.58,4.84 z"
         id="path5589" /><path
         style="fill:#000000;stroke-width:0"
         inkscape:connector-curvature="0"
         d="m 664.28,434.34 0.23,0.36 0.22,0.33 0.23,0.31 0.22,0.29 0.22,0.28 0.22,0.25 0.21,0.24 0.22,0.22 0.21,0.2 0.21,0.18 0.21,0.18 0.21,0.15 0.2,0.15 0.2,0.13 0.21,0.11 0.19,0.11 0.2,0.1 0.2,0.08 0.19,0.08 0.2,0.06 0.19,0.06 0.19,0.05 0.18,0.04 0.19,0.04 0.18,0.03 0.19,0.02 0.36,0.04 0.35,0.03 0.35,0.02 c 0.6,0.05 0.64,0.9 0.64,0.95 0,0.39 -0.24,0.59 -0.64,0.59 l -9.02,0 c -0.3,0 -0.94,0 -0.94,-0.95 0,-0.54 0.45,-0.59 0.79,-0.59 1.35,-0.1 2.29,-0.6 2.29,-1.64 0,-0.75 -0.74,-1.85 -0.74,-1.9 l -15.29,-24.31 -3.4,26.35 c 0,0.85 1.15,1.5 3.44,1.5 0.7,0 1.25,0 1.25,0.99 0,0.45 -0.4,0.55 -0.7,0.55 -1.99,0 -4.13,-0.15 -6.18,-0.15 -0.89,0 -1.84,0.05 -2.73,0.05 -0.9,0 -1.85,0.1 -2.7,0.1 -0.34,0 -0.94,0 -0.94,-0.95 0,-0.59 0.45,-0.59 1.24,-0.59 2.79,0 2.85,-0.45 2.99,-1.69 l 3.94,-30.74 c 0.15,-1 0.35,-1.15 1,-1.15 0.79,0 0.99,0.25 1.39,0.9 z"
         id="path5591" /><path
         style="fill:#000000;stroke-width:0"
         inkscape:connector-curvature="0"
         d="m 689.49,394.04 0,0.03 0,0.03 -0.01,0.01 0,0.02 0,0.01 -0.01,0.02 0,0.02 -0.01,0.01 -0.01,0.02 -0.01,0.02 -0.01,0.03 -0.01,0.02 -0.02,0.02 -0.02,0.03 -0.02,0.03 -0.02,0.03 -0.03,0.03 -0.03,0.04 -0.01,0.02 -0.02,0.02 -0.02,0.02 -0.02,0.02 -0.02,0.02 -0.02,0.03 -0.02,0.02 -0.02,0.02 -0.02,0.03 -0.03,0.02 -0.02,0.03 -0.03,0.03 -0.02,0.03 -0.03,0.03 -0.03,0.03 -0.03,0.03 -0.03,0.03 -0.03,0.03 -0.04,0.04 -0.03,0.03 -0.04,0.04 -0.03,0.03 -0.04,0.04 -0.04,0.04 c -6.23,6.28 -7.82,15.69 -7.82,23.31 0,8.67 1.9,17.34 8.02,23.57 0.65,0.59 0.65,0.69 0.65,0.84 0,0.35 -0.2,0.5 -0.5,0.5 -0.5,0 -4.98,-3.39 -7.92,-9.72 -2.54,-5.47 -3.14,-11 -3.14,-15.19 0,-3.88 0.55,-9.91 3.29,-15.54 2.99,-6.12 7.27,-9.36 7.77,-9.36 0.3,0 0.5,0.15 0.5,0.49 z"
         id="path5593" /><path
         style="fill:#000000;stroke-width:0"
         inkscape:connector-curvature="0"
         d="m 704.91,440.02 0,0.01 0,0 0,0.01 0,0.01 -0.01,0.01 0,0.01 0,0.02 0,0.02 0,0.02 -0.01,0.02 0,0.02 -0.01,0.02 -0.01,0.03 -0.01,0.02 -0.01,0.03 -0.01,0.02 -0.01,0.02 -0.02,0.03 -0.02,0.02 -0.02,0.03 -0.02,0.02 -0.01,0.01 -0.02,0.01 -0.01,0.01 -0.01,0.01 -0.02,0.01 -0.01,0.01 -0.02,0.01 -0.02,0.01 -0.01,0.01 -0.02,0.01 -0.02,0.01 -0.02,0 -0.02,0.01 -0.02,0.01 -0.03,0 -0.02,0.01 -0.02,0 -0.03,0.01 -0.02,0 -0.03,0 -0.03,0.01 -0.02,0 -0.03,0 -0.03,0 c -1.15,0 -4.78,-0.4 -6.08,-0.5 -0.4,-0.05 -0.95,-0.1 -0.95,-1 0,-0.59 0.45,-0.59 1.2,-0.59 2.39,0 2.49,-0.35 2.49,-0.85 0,-0.35 -0.45,-2.04 -0.7,-3.09 l -4.08,-16.24 c -0.6,-2.49 -0.8,-3.28 -0.8,-5.03 0,-4.73 2.64,-7.82 6.33,-7.82 l 0,1.1 c -1.7,0 -3.34,1.34 -3.34,5.03 0,0.95 0,1.89 0.8,5.03 l 1.09,4.58 c 0.3,1.1 0.3,1.2 0.75,1.75 2.44,3.24 4.68,3.98 5.98,3.98 1.79,0 3.14,-1.49 3.14,-4.68 0,-2.94 -1.65,-8.67 -2.54,-10.56 -1.65,-3.34 -3.94,-5.13 -5.88,-5.13 l 0,-1.1 c 5.88,0 12,7.43 12,14.6 0,4.53 -2.64,7.97 -6.62,7.97 -2.29,0 -4.33,-1.45 -5.83,-2.99 z"
         id="path5595" /><path
         style="fill:#000000;stroke-width:0"
         inkscape:connector-curvature="0"
         d="m 728.4,418.45 -0.01,0.37 0,0.39 -0.01,0.39 -0.01,0.41 -0.04,0.84 -0.06,0.88 -0.09,0.92 -0.1,0.94 -0.14,0.98 -0.16,1 -0.2,1.02 -0.23,1.04 -0.27,1.05 -0.3,1.06 -0.35,1.06 -0.39,1.07 -0.22,0.53 -0.22,0.54 -0.24,0.53 -0.25,0.53 c -2.99,6.12 -7.27,9.36 -7.77,9.36 -0.3,0 -0.5,-0.2 -0.5,-0.5 0,-0.15 0,-0.25 0.94,-1.15 4.89,-4.92 7.73,-12.85 7.73,-23.26 0,-8.52 -1.85,-17.28 -8.02,-23.56 -0.65,-0.6 -0.65,-0.69 -0.65,-0.85 0,-0.29 0.2,-0.49 0.5,-0.49 0.5,0 4.98,3.38 7.92,9.71 2.54,5.48 3.14,11.01 3.14,15.19 z"
         id="path5597" /><path
         style="fill:#000000;stroke-width:0"
         inkscape:connector-curvature="0"
         d="m 765.38,417.46 13.89,0 c 0.7,0 1.64,0 1.64,0.99 0,1 -0.94,1 -1.64,1 l -13.89,0 0,13.95 c 0,0.69 0,1.64 -1,1.64 -1,0 -1,-0.95 -1,-1.64 l 0,-13.95 -13.95,0 c -0.7,0 -1.64,0 -1.64,-1 0,-0.99 0.94,-0.99 1.64,-0.99 l 13.95,0 0,-13.95 c 0,-0.7 0,-1.64 1,-1.64 1,0 1,0.94 1,1.64 z"
         id="path5599" /><path
         style="fill:#000000;stroke-width:0"
         inkscape:connector-curvature="0"
         d="m 817.76,417.76 0,0.36 -0.01,0.36 -0.02,0.34 -0.02,0.34 -0.07,0.66 -0.08,0.62 -0.12,0.6 -0.13,0.57 -0.15,0.54 -0.18,0.51 -0.19,0.48 -0.22,0.46 -0.22,0.43 -0.25,0.41 -0.26,0.38 -0.27,0.36 -0.29,0.33 -0.3,0.31 -0.3,0.29 -0.32,0.26 -0.33,0.24 -0.34,0.22 -0.34,0.2 -0.34,0.18 -0.36,0.16 -0.35,0.14 -0.36,0.13 -0.36,0.1 -0.36,0.09 -0.36,0.07 -0.36,0.05 -0.36,0.04 -0.35,0.02 -0.35,0.01 -0.05,-1.1 c 4.93,0 4.93,-6.53 4.93,-10.41 0,-1.84 0,-4.73 0.1,-5.58 l 0,0 c -4.38,-3.83 -8.22,-4.38 -10.21,-4.38 -2.99,0 -4.48,2.24 -4.48,5.43 0,2.44 1.29,7.82 2.89,10.36 2.34,3.64 5.03,4.58 6.77,4.58 l 0.05,1.1 c -6.82,0 -13.4,-7.13 -13.4,-14.15 0,-4.63 2.99,-8.42 8.07,-8.42 3.14,0 6.73,1.15 10.51,4.19 0.65,-2.64 2.29,-4.19 4.54,-4.19 2.64,0 4.18,2.74 4.18,3.54 0,0.35 -0.3,0.5 -0.6,0.5 -0.34,0 -0.5,-0.15 -0.65,-0.5 -0.89,-2.44 -2.68,-2.44 -2.79,-2.44 -1.54,0 -1.54,3.88 -1.54,5.08 0,1.05 0,1.14 0.5,1.74 4.68,5.88 5.73,11.66 5.73,11.71 0,0.1 -0.05,0.5 -0.6,0.5 -0.5,0 -0.5,-0.15 -0.75,-1.05 -0.89,-3.14 -2.54,-6.92 -4.88,-9.86 z"
         id="path5601" /><path
         style="fill:#000000;stroke-width:0"
         inkscape:connector-curvature="0"
         d="m 843.49,394.04 0,0.03 0,0.03 -0.01,0.01 0,0.02 0,0.01 -0.01,0.02 0,0.02 -0.01,0.01 -0.01,0.02 -0.01,0.02 -0.01,0.03 -0.01,0.02 -0.02,0.02 -0.02,0.03 -0.02,0.03 -0.02,0.03 -0.03,0.03 -0.03,0.04 -0.01,0.02 -0.02,0.02 -0.02,0.02 -0.02,0.02 -0.02,0.02 -0.02,0.03 -0.02,0.02 -0.02,0.02 -0.02,0.03 -0.03,0.02 -0.02,0.03 -0.03,0.03 -0.02,0.03 -0.03,0.03 -0.03,0.03 -0.03,0.03 -0.03,0.03 -0.03,0.03 -0.04,0.04 -0.03,0.03 -0.04,0.04 -0.03,0.03 -0.04,0.04 -0.04,0.04 c -6.23,6.28 -7.82,15.69 -7.82,23.31 0,8.67 1.9,17.34 8.02,23.57 0.65,0.59 0.65,0.69 0.65,0.84 0,0.35 -0.2,0.5 -0.5,0.5 -0.5,0 -4.98,-3.39 -7.92,-9.72 -2.54,-5.47 -3.14,-11 -3.14,-15.19 0,-3.88 0.55,-9.91 3.29,-15.54 2.99,-6.12 7.27,-9.36 7.77,-9.36 0.3,0 0.5,0.15 0.5,0.49 z"
         id="path5603" /><path
         style="fill:#000000;stroke-width:0"
         inkscape:connector-curvature="0"
         d="m 850.38,408.94 -0.01,-0.07 -0.02,-0.08 -0.01,-0.07 -0.02,-0.08 -0.03,-0.16 -0.04,-0.16 -0.04,-0.16 -0.03,-0.16 -0.04,-0.16 -0.04,-0.16 -0.01,-0.08 -0.02,-0.07 -0.02,-0.07 -0.01,-0.07 -0.02,-0.07 -0.01,-0.07 -0.01,-0.06 -0.02,-0.06 -0.01,-0.05 -0.01,-0.06 -0.01,-0.05 0,-0.04 -0.01,-0.04 0,-0.04 -0.01,-0.03 0,-0.02 c 0,-0.9 0.7,-1.35 1.45,-1.35 0.6,0 1.5,0.4 1.84,1.4 0.1,0.2 1.8,6.97 2,7.87 0.39,1.64 1.29,5.13 1.59,6.47 0.2,0.65 1.59,2.99 2.79,4.09 0.4,0.34 1.84,1.64 3.99,1.64 1.29,0 2.03,-0.6 2.09,-0.6 -1.5,-0.25 -2.59,-1.44 -2.59,-2.73 0,-0.8 0.54,-1.75 1.89,-1.75 1.34,0 2.74,1.14 2.74,2.94 0,1.74 -1.6,3.24 -4.13,3.24 -3.24,0 -5.43,-2.44 -6.38,-3.84 -0.4,2.24 -2.19,3.84 -4.53,3.84 -2.3,0 -3.24,-1.95 -3.69,-2.84 -0.9,-1.7 -1.54,-4.68 -1.54,-4.83 0,-0.5 0.49,-0.5 0.59,-0.5 0.5,0 0.55,0.05 0.85,1.14 0.84,3.54 1.84,5.93 3.64,5.93 0.84,0 1.54,-0.4 1.54,-2.29 0,-1.04 -0.15,-1.59 -0.8,-4.18 z"
         id="path5605" /><path
         style="fill:#000000;stroke-width:0"
         inkscape:connector-curvature="0"
         d="m 901.38,417.46 13.89,0 c 0.7,0 1.64,0 1.64,0.99 0,1 -0.94,1 -1.64,1 l -13.89,0 0,13.95 c 0,0.69 0,1.64 -1,1.64 -1,0 -1,-0.95 -1,-1.64 l 0,-13.95 -13.95,0 c -0.7,0 -1.64,0 -1.64,-1 0,-0.99 0.94,-0.99 1.64,-0.99 l 13.95,0 0,-13.95 c 0,-0.7 0,-1.64 1,-1.64 1,0 1,0.94 1,1.64 z"
         id="path5607" /><path
         style="fill:#000000;stroke-width:0"
         inkscape:connector-curvature="0"
         d="m 933.04,418.65 0.1,0.27 0.09,0.25 0.11,0.25 0.11,0.24 0.11,0.23 0.11,0.23 0.12,0.22 0.13,0.21 0.13,0.2 0.13,0.19 0.13,0.19 0.14,0.18 0.28,0.35 0.29,0.31 0.3,0.29 0.31,0.27 0.31,0.25 0.32,0.22 0.31,0.2 0.32,0.18 0.32,0.17 0.31,0.14 0.32,0.13 0.3,0.11 0.3,0.1 0.29,0.08 0.28,0.07 0.26,0.06 0.26,0.05 0.24,0.04 0.22,0.03 0.2,0.03 0.19,0.02 0.16,0.01 0.15,0 0.11,0.01 0.1,0 0.06,0 c 7.52,0 8.07,-8.72 8.07,-12.65 0,-3.04 -0.25,-3.89 -0.6,-4.88 -1.09,-3.64 -2.59,-9.42 -2.59,-10.71 0,-0.55 0.25,-0.9 0.65,-0.9 0.65,0 1.05,1.1 1.6,2.99 1.14,4.18 1.64,7.02 1.84,8.57 0.1,0.65 0.2,1.29 0.4,1.94 1.59,4.93 4.78,12.35 6.77,16.29 0.35,0.6 0.95,1.69 0.95,1.89 0,0.5 -0.5,0.5 -0.6,0.5 -0.15,0 -0.45,0 -0.6,-0.35 -2.59,-4.73 -4.58,-9.71 -6.57,-14.74 -0.05,1.54 -0.1,5.33 -2.05,10.16 -1.19,3.04 -3.18,5.48 -6.62,5.48 -6.23,0 -9.71,-7.57 -9.71,-9.12 0,-0.5 0.44,-0.5 0.94,-0.5 z"
         id="path5609" /><path
         style="fill:#000000;stroke-width:0"
         inkscape:connector-curvature="0"
         d="m 979.56,418.45 0,0.14 -0.01,0.13 -0.02,0.13 -0.02,0.13 -0.03,0.13 -0.04,0.12 -0.04,0.13 -0.05,0.12 -0.05,0.11 -0.06,0.12 -0.06,0.11 -0.07,0.1 -0.08,0.11 -0.07,0.1 -0.09,0.09 -0.09,0.1 -0.09,0.08 -0.09,0.09 -0.1,0.08 -0.11,0.07 -0.1,0.07 -0.11,0.06 -0.12,0.06 -0.11,0.05 -0.12,0.05 -0.13,0.04 -0.12,0.04 -0.13,0.03 -0.13,0.02 -0.13,0.02 -0.13,0.01 -0.13,0 c -1.45,0 -2.65,-1.19 -2.65,-2.64 0,-1.44 1.2,-2.64 2.65,-2.64 1.44,0 2.63,1.2 2.63,2.64 z"
         id="path5611" /><path
         style="fill:#000000;stroke-width:0"
         inkscape:connector-curvature="0"
         d="m 1026.3,434.34 0.2,0.36 0.2,0.33 0.3,0.31 0.2,0.29 0.2,0.28 0.2,0.25 0.2,0.24 0.2,0.22 0.3,0.2 0.2,0.18 0.2,0.18 0.2,0.15 0.2,0.15 0.2,0.13 0.2,0.11 0.2,0.11 0.2,0.1 0.2,0.08 0.2,0.08 0.2,0.06 0.2,0.06 0.2,0.05 0.1,0.04 0.2,0.04 0.2,0.03 0.2,0.02 0.4,0.04 0.3,0.03 0.4,0.02 c 0.6,0.05 0.6,0.9 0.6,0.95 0,0.39 -0.2,0.59 -0.6,0.59 l -9.1,0 c -0.3,0 -0.9,0 -0.9,-0.95 0,-0.54 0.4,-0.59 0.8,-0.59 1.3,-0.1 2.3,-0.6 2.3,-1.64 0,-0.75 -0.8,-1.85 -0.8,-1.9 l -15.2,-24.31 -3.4,26.35 c 0,0.85 1.1,1.5 3.4,1.5 0.7,0 1.2,0 1.2,0.99 0,0.45 -0.4,0.55 -0.7,0.55 -2,0 -4.1,-0.15 -6.1,-0.15 -0.9,0 -1.9,0.05 -2.8,0.05 -0.9,0 -1.82,0.1 -2.67,0.1 -0.34,0 -0.94,0 -0.94,-0.95 0,-0.59 0.45,-0.59 1.24,-0.59 2.77,0 2.87,-0.45 2.97,-1.69 l 4,-30.74 c 0.1,-1 0.3,-1.15 1,-1.15 0.8,0 1,0.25 1.3,0.9 z"
         id="path5613" /><path
         style="fill:#000000;stroke-width:0"
         inkscape:connector-curvature="0"
         d="m 1051.5,394.04 0,0.03 0,0.03 0,0.01 0,0.02 0,0.01 0,0.02 0,0.02 0,0.01 0,0.02 -0.1,0.02 0,0.03 0,0.02 0,0.02 0,0.03 0,0.03 -0.1,0.03 0,0.03 0,0.04 0,0.02 -0.1,0.02 0,0.02 0,0.02 0,0.02 0,0.03 0,0.02 -0.1,0.02 0,0.03 0,0.02 0,0.03 -0.1,0.03 0,0.03 0,0.03 0,0.03 -0.1,0.03 0,0.03 0,0.03 -0.1,0.04 0,0.03 0,0.04 -0.1,0.03 0,0.04 -0.1,0.04 c -6.2,6.28 -7.8,15.69 -7.8,23.31 0,8.67 1.9,17.34 8,23.57 0.7,0.59 0.7,0.69 0.7,0.84 0,0.35 -0.2,0.5 -0.5,0.5 -0.5,0 -5,-3.39 -7.9,-9.72 -2.6,-5.47 -3.2,-11 -3.2,-15.19 0,-3.88 0.6,-9.91 3.3,-15.54 3,-6.12 7.3,-9.36 7.8,-9.36 0.3,0 0.5,0.15 0.5,0.49 z"
         id="path5615" /><path
         style="fill:#000000;stroke-width:0"
         inkscape:connector-curvature="0"
         d="m 1059.4,408.94 0,-0.07 0,-0.08 -0.1,-0.07 0,-0.08 0,-0.16 -0.1,-0.16 0,-0.16 0,-0.16 -0.1,-0.16 0,-0.16 0,-0.08 0,-0.07 -0.1,-0.07 0,-0.07 0,-0.07 0,-0.07 0,-0.06 0,-0.06 0,-0.05 0,-0.06 0,-0.05 -0.1,-0.04 0,-0.04 0,-0.04 0,-0.03 0,-0.02 c 0,-0.9 0.7,-1.35 1.5,-1.35 0.6,0 1.5,0.4 1.8,1.4 0.1,0.2 1.8,6.97 2,7.87 0.4,1.64 1.3,5.13 1.6,6.47 0.2,0.65 1.6,2.99 2.8,4.09 0.4,0.34 1.8,1.64 4,1.64 1.3,0 2,-0.6 2.1,-0.6 -1.5,-0.25 -2.6,-1.44 -2.6,-2.73 0,-0.8 0.5,-1.75 1.9,-1.75 1.3,0 2.7,1.14 2.7,2.94 0,1.74 -1.6,3.24 -4.1,3.24 -3.3,0 -5.4,-2.44 -6.4,-3.84 -0.4,2.24 -2.2,3.84 -4.5,3.84 -2.3,0 -3.3,-1.95 -3.7,-2.84 -0.9,-1.7 -1.6,-4.68 -1.6,-4.83 0,-0.5 0.5,-0.5 0.6,-0.5 0.5,0 0.6,0.05 0.9,1.14 0.8,3.54 1.8,5.93 3.6,5.93 0.9,0 1.6,-0.4 1.6,-2.29 0,-1.04 -0.2,-1.59 -0.8,-4.18 z"
         id="path5617" /><path
         style="fill:#000000;stroke-width:0"
         inkscape:connector-curvature="0"
         d="m 1092.4,418.45 0,0.37 0,0.39 0,0.39 0,0.41 -0.1,0.84 0,0.88 -0.1,0.92 -0.1,0.94 -0.2,0.98 -0.1,1 -0.2,1.02 -0.2,1.04 -0.3,1.05 -0.3,1.06 -0.4,1.06 -0.4,1.07 -0.2,0.53 -0.2,0.54 -0.2,0.53 -0.3,0.53 c -3,6.12 -7.3,9.36 -7.8,9.36 -0.3,0 -0.5,-0.2 -0.5,-0.5 0,-0.15 0,-0.25 1,-1.15 4.9,-4.92 7.7,-12.85 7.7,-23.26 0,-8.52 -1.8,-17.28 -8,-23.56 -0.7,-0.6 -0.7,-0.69 -0.7,-0.85 0,-0.29 0.2,-0.49 0.5,-0.49 0.5,0 5,3.38 8,9.71 2.5,5.48 3.1,11.01 3.1,15.19 z"
         id="path5619" /><path
         style="fill:#000000;stroke-width:0"
         inkscape:connector-curvature="0"
         d="m 1141.8,417.46 0.2,0 0.1,0 0.2,0 0.1,0.01 0.1,0 0,0.01 0.1,0.01 0.1,0.01 0,0.01 0.1,0.01 0.1,0.02 0.1,0.02 0,0.02 0.1,0.03 0,0.02 0.1,0.04 0,0.03 0.1,0.04 0,0.04 0.1,0.05 0,0.05 0,0.02 0.1,0.03 0,0.03 0,0.03 0,0.03 0,0.04 0,0.03 0,0.03 0,0.04 0,0.04 0.1,0.04 0,0.04 0,0.04 0,0.04 0,0.05 0,0.04 c 0,1 -0.9,1 -1.8,1 l -26.9,0 c -0.9,0 -1.8,0 -1.8,-1 0,-0.99 0.9,-0.99 1.8,-0.99 z"
         id="path5621" /><path
         style="fill:#000000;stroke-width:0"
         inkscape:connector-curvature="0"
         d="m 1190.3,434.34 0.2,0.36 0.2,0.33 0.3,0.31 0.2,0.29 0.2,0.28 0.2,0.25 0.2,0.24 0.2,0.22 0.3,0.2 0.2,0.18 0.2,0.18 0.2,0.15 0.2,0.15 0.2,0.13 0.2,0.11 0.2,0.11 0.2,0.1 0.2,0.08 0.2,0.08 0.2,0.06 0.2,0.06 0.2,0.05 0.1,0.04 0.2,0.04 0.2,0.03 0.2,0.02 0.4,0.04 0.3,0.03 0.4,0.02 c 0.6,0.05 0.6,0.9 0.6,0.95 0,0.39 -0.2,0.59 -0.6,0.59 l -9.1,0 c -0.3,0 -0.9,0 -0.9,-0.95 0,-0.54 0.4,-0.59 0.8,-0.59 1.3,-0.1 2.3,-0.6 2.3,-1.64 0,-0.75 -0.8,-1.85 -0.8,-1.9 l -15.2,-24.31 -3.4,26.35 c 0,0.85 1.1,1.5 3.4,1.5 0.7,0 1.2,0 1.2,0.99 0,0.45 -0.4,0.55 -0.7,0.55 -2,0 -4.1,-0.15 -6.1,-0.15 -0.9,0 -1.9,0.05 -2.8,0.05 -0.9,0 -1.8,0.1 -2.7,0.1 -0.3,0 -0.9,0 -0.9,-0.95 0,-0.59 0.4,-0.59 1.2,-0.59 2.8,0 2.9,-0.45 3,-1.69 l 4,-30.74 c 0.1,-1 0.3,-1.15 1,-1.15 0.8,0 0.9,0.25 1.3,0.9 z"
         id="path5623" /><path
         style="fill:#000000;stroke-width:0"
         inkscape:connector-curvature="0"
         d="m 1215.5,394.04 0,0.03 0,0.03 0,0.01 0,0.02 0,0.01 0,0.02 0,0.02 0,0.01 0,0.02 -0.1,0.02 0,0.03 0,0.02 0,0.02 0,0.03 0,0.03 -0.1,0.03 0,0.03 0,0.04 0,0.02 -0.1,0.02 0,0.02 0,0.02 0,0.02 0,0.03 0,0.02 -0.1,0.02 0,0.03 0,0.02 0,0.03 -0.1,0.03 0,0.03 0,0.03 0,0.03 -0.1,0.03 0,0.03 0,0.03 -0.1,0.04 0,0.03 0,0.04 -0.1,0.03 0,0.04 -0.1,0.04 c -6.2,6.28 -7.8,15.69 -7.8,23.31 0,8.67 1.9,17.34 8,23.57 0.7,0.59 0.7,0.69 0.7,0.84 0,0.35 -0.2,0.5 -0.5,0.5 -0.5,0 -5,-3.39 -7.9,-9.72 -2.6,-5.47 -3.2,-11 -3.2,-15.19 0,-3.88 0.6,-9.91 3.3,-15.54 3,-6.12 7.3,-9.36 7.8,-9.36 0.3,0 0.5,0.15 0.5,0.49 z"
         id="path5625" /><path
         style="fill:#000000;stroke-width:0"
         inkscape:connector-curvature="0"
         d="m 1229.9,440.02 0,0.01 0,0 0,0.01 0,0.01 0,0.01 0,0.01 0,0.02 0,0.02 0,0.02 0,0.02 0,0.02 0,0.02 0,0.03 0,0.02 0,0.03 -0.1,0.02 0,0.02 0,0.03 0,0.02 0,0.03 0,0.02 -0.1,0.01 0,0.01 0,0.01 0,0.01 0,0.01 0,0.01 0,0.01 -0.1,0.01 0,0.01 0,0.01 0,0.01 0,0 -0.1,0.01 0,0.01 0,0 0,0.01 0,0 -0.1,0.01 0,0 0,0 -0.1,0.01 0,0 0,0 0,0 c -1.2,0 -4.8,-0.4 -6.1,-0.5 -0.4,-0.05 -1,-0.1 -1,-1 0,-0.59 0.5,-0.59 1.2,-0.59 2.4,0 2.5,-0.35 2.5,-0.85 0,-0.35 -0.4,-2.04 -0.7,-3.09 l -4.1,-16.24 c -0.6,-2.49 -0.8,-3.28 -0.8,-5.03 0,-4.73 2.7,-7.82 6.4,-7.82 l 0,1.1 c -1.7,0 -3.4,1.34 -3.4,5.03 0,0.95 0,1.89 0.8,5.03 l 1.1,4.58 c 0.3,1.1 0.3,1.2 0.8,1.75 2.4,3.24 4.7,3.98 5.9,3.98 1.8,0 3.2,-1.49 3.2,-4.68 0,-2.94 -1.7,-8.67 -2.5,-10.56 -1.7,-3.34 -4,-5.13 -5.9,-5.13 l 0,-1.1 c 5.9,0 12,7.43 12,14.6 0,4.53 -2.7,7.97 -6.6,7.97 -2.3,0 -4.4,-1.45 -5.9,-2.99 z"
         id="path5627" /><path
         style="fill:#000000;stroke-width:0"
         inkscape:connector-curvature="0"
         d="m 1254.4,418.45 0,0.37 0,0.39 0,0.39 0,0.41 -0.1,0.84 0,0.88 -0.1,0.92 -0.1,0.94 -0.2,0.98 -0.1,1 -0.2,1.02 -0.2,1.04 -0.3,1.05 -0.3,1.06 -0.4,1.06 -0.4,1.07 -0.2,0.53 -0.2,0.54 -0.2,0.53 -0.3,0.53 c -3,6.12 -7.3,9.36 -7.8,9.36 -0.3,0 -0.5,-0.2 -0.5,-0.5 0,-0.15 0,-0.25 1,-1.15 4.9,-4.92 7.7,-12.85 7.7,-23.26 0,-8.52 -1.8,-17.28 -8,-23.56 -0.7,-0.6 -0.7,-0.69 -0.7,-0.85 0,-0.29 0.2,-0.49 0.5,-0.49 0.5,0 5,3.38 8,9.71 2.5,5.48 3.1,11.01 3.1,15.19 z"
         id="path5629" /><path
         style="fill:#000000;stroke-width:0"
         inkscape:connector-curvature="0"
         d="m 1273.4,418.45 0,0.37 0,0.39 0,0.39 0,0.41 -0.1,0.84 0,0.88 -0.1,0.92 -0.1,0.94 -0.2,0.98 -0.1,1 -0.2,1.02 -0.2,1.04 -0.3,1.05 -0.3,1.06 -0.4,1.06 -0.4,1.07 -0.2,0.53 -0.2,0.54 -0.2,0.53 -0.3,0.53 c -3,6.12 -7.3,9.36 -7.8,9.36 -0.3,0 -0.5,-0.2 -0.5,-0.5 0,-0.15 0,-0.25 1,-1.15 4.9,-4.92 7.7,-12.85 7.7,-23.26 0,-8.52 -1.8,-17.28 -8,-23.56 -0.7,-0.6 -0.7,-0.69 -0.7,-0.85 0,-0.29 0.2,-0.49 0.5,-0.49 0.5,0 5,3.38 8,9.71 2.5,5.48 3.1,11.01 3.1,15.19 z"
         id="path5631" /></g>  </g>
  <g
     transform="matrix(0.83920063,0,0,0.83920063,-245.44661,16.405657)"
     id="g6052">
    <g
       style="font-style:normal;font-variant:normal;font-weight:normal;font-stretch:normal;letter-spacing:normal;word-spacing:normal;text-anchor:start;fill:none;fill-opacity:1;fill-rule:evenodd;stroke:#000000;stroke-linecap:butt;stroke-linejoin:miter;stroke-miterlimit:10.43299961;stroke-dasharray:none;stroke-dashoffset:0;stroke-opacity:1"
       id="g6054"
       transform="matrix(1.0629921,0,0,-1.0629921,-186.02362,789.27165)"
       xml:space="preserve"
       stroke-miterlimit="10.433"
       font-style="normal"
       font-variant="normal"
       font-weight="normal"
       font-stretch="normal"
       font-size-adjust="none"
       letter-spacing="normal"
       word-spacing="normal"><path
         style="fill:#000000;stroke-width:0"
         inkscape:connector-curvature="0"
         d="m 487.28,434.34 0.23,0.36 0.22,0.33 0.23,0.31 0.22,0.29 0.22,0.28 0.22,0.25 0.21,0.24 0.22,0.22 0.21,0.2 0.21,0.18 0.21,0.18 0.21,0.15 0.2,0.15 0.2,0.13 0.21,0.11 0.19,0.11 0.2,0.1 0.2,0.08 0.19,0.08 0.2,0.06 0.19,0.06 0.19,0.05 0.18,0.04 0.19,0.04 0.18,0.03 0.19,0.02 0.36,0.04 0.35,0.03 0.35,0.02 c 0.6,0.05 0.64,0.9 0.64,0.95 0,0.39 -0.24,0.59 -0.64,0.59 l -9.02,0 c -0.3,0 -0.94,0 -0.94,-0.95 0,-0.54 0.44,-0.59 0.79,-0.59 1.35,-0.1 2.3,-0.6 2.3,-1.64 0,-0.75 -0.75,-1.85 -0.75,-1.9 l -15.29,-24.31 -3.39,26.35 c 0,0.85 1.14,1.5 3.43,1.5 0.7,0 1.25,0 1.25,0.99 0,0.45 -0.4,0.55 -0.7,0.55 -1.99,0 -4.13,-0.15 -6.18,-0.15 -0.89,0 -1.84,0.05 -2.73,0.05 -0.9,0 -1.85,0.1 -2.7,0.1 -0.34,0 -0.94,0 -0.94,-0.95 0,-0.59 0.45,-0.59 1.25,-0.59 2.78,0 2.84,-0.45 2.98,-1.69 l 3.94,-30.74 c 0.15,-1 0.35,-1.15 1,-1.15 0.79,0 0.99,0.25 1.39,0.9 z"
         id="path6056" /><path
         style="fill:#000000;stroke-width:0"
         inkscape:connector-curvature="0"
         d="m 512.49,394.04 0,0.03 0,0.03 -0.01,0.01 0,0.02 0,0.01 -0.01,0.02 0,0.02 -0.01,0.01 -0.01,0.02 -0.01,0.02 -0.01,0.03 -0.01,0.02 -0.02,0.02 -0.02,0.03 -0.02,0.03 -0.02,0.03 -0.03,0.03 -0.03,0.04 -0.01,0.02 -0.02,0.02 -0.02,0.02 -0.02,0.02 -0.02,0.02 -0.02,0.03 -0.02,0.02 -0.02,0.02 -0.02,0.03 -0.03,0.02 -0.02,0.03 -0.03,0.03 -0.02,0.03 -0.03,0.03 -0.03,0.03 -0.03,0.03 -0.03,0.03 -0.03,0.03 -0.04,0.04 -0.03,0.03 -0.04,0.04 -0.03,0.03 -0.04,0.04 -0.04,0.04 c -6.23,6.28 -7.82,15.69 -7.82,23.31 0,8.67 1.89,17.34 8.02,23.57 0.65,0.59 0.65,0.69 0.65,0.84 0,0.35 -0.2,0.5 -0.5,0.5 -0.5,0 -4.98,-3.39 -7.92,-9.72 -2.54,-5.47 -3.14,-11 -3.14,-15.19 0,-3.88 0.55,-9.91 3.29,-15.54 2.99,-6.12 7.27,-9.36 7.77,-9.36 0.3,0 0.5,0.15 0.5,0.49 z"
         id="path6058" /><path
         style="fill:#000000;stroke-width:0"
         inkscape:connector-curvature="0"
         d="m 526.91,440.02 0,0.01 0,0 0,0.01 0,0.01 -0.01,0.01 0,0.01 0,0.02 0,0.02 0,0.02 -0.01,0.02 0,0.02 -0.01,0.02 -0.01,0.03 -0.01,0.02 -0.01,0.03 -0.01,0.02 -0.01,0.02 -0.02,0.03 -0.02,0.02 -0.02,0.03 -0.02,0.02 -0.01,0.01 -0.02,0.01 -0.01,0.01 -0.01,0.01 -0.02,0.01 -0.01,0.01 -0.02,0.01 -0.02,0.01 -0.01,0.01 -0.02,0.01 -0.02,0.01 -0.02,0 -0.02,0.01 -0.02,0.01 -0.03,0 -0.02,0.01 -0.02,0 -0.03,0.01 -0.02,0 -0.03,0 -0.03,0.01 -0.02,0 -0.03,0 -0.03,0 c -1.15,0 -4.78,-0.4 -6.08,-0.5 -0.4,-0.05 -0.95,-0.1 -0.95,-1 0,-0.59 0.45,-0.59 1.2,-0.59 2.39,0 2.49,-0.35 2.49,-0.85 0,-0.35 -0.45,-2.04 -0.7,-3.09 l -4.08,-16.24 c -0.6,-2.49 -0.8,-3.28 -0.8,-5.03 0,-4.73 2.64,-7.82 6.33,-7.82 l 0,1.1 c -1.7,0 -3.34,1.34 -3.34,5.03 0,0.95 0,1.89 0.8,5.03 l 1.09,4.58 c 0.3,1.1 0.3,1.2 0.75,1.75 2.44,3.24 4.68,3.98 5.98,3.98 1.79,0 3.14,-1.49 3.14,-4.68 0,-2.94 -1.65,-8.67 -2.54,-10.56 -1.65,-3.34 -3.94,-5.13 -5.88,-5.13 l 0,-1.1 c 5.88,0 12,7.43 12,14.6 0,4.53 -2.64,7.97 -6.62,7.97 -2.29,0 -4.33,-1.45 -5.83,-2.99 z"
         id="path6060" /><path
         style="fill:#000000;stroke-width:0"
         inkscape:connector-curvature="0"
         d="m 550.4,418.45 -0.01,0.37 0,0.39 -0.01,0.39 -0.01,0.41 -0.04,0.84 -0.06,0.88 -0.09,0.92 -0.1,0.94 -0.14,0.98 -0.16,1 -0.2,1.02 -0.23,1.04 -0.27,1.05 -0.3,1.06 -0.35,1.06 -0.39,1.07 -0.22,0.53 -0.22,0.54 -0.24,0.53 -0.25,0.53 c -2.99,6.12 -7.27,9.36 -7.77,9.36 -0.3,0 -0.5,-0.2 -0.5,-0.5 0,-0.15 0,-0.25 0.94,-1.15 4.89,-4.92 7.73,-12.85 7.73,-23.26 0,-8.52 -1.85,-17.28 -8.02,-23.56 -0.65,-0.6 -0.65,-0.69 -0.65,-0.85 0,-0.29 0.2,-0.49 0.5,-0.49 0.5,0 4.98,3.38 7.92,9.71 2.54,5.48 3.14,11.01 3.14,15.19 z"
         id="path6062" /><path
         style="fill:#000000;stroke-width:0"
         inkscape:connector-curvature="0"
         d="m 615.23,417.46 0.17,0 0.17,0 0.16,0 0.08,0.01 0.08,0 0.08,0.01 0.07,0.01 0.08,0.01 0.07,0.01 0.07,0.01 0.07,0.02 0.07,0.02 0.06,0.02 0.07,0.03 0.05,0.02 0.06,0.04 0.05,0.03 0.05,0.04 0.05,0.04 0.04,0.05 0.04,0.05 0.03,0.05 0.02,0.03 0.01,0.03 0.02,0.03 0.01,0.04 0.01,0.03 0.01,0.03 0.01,0.04 0.01,0.04 0.01,0.04 0,0.04 0.01,0.04 0,0.04 0,0.05 0,0.04 c 0,1 -0.89,1 -1.79,1 l -37.01,0 c 2.74,2.09 4.08,4.14 4.48,4.78 2.25,3.44 2.64,6.58 2.64,6.63 0,0.59 -0.59,0.59 -0.99,0.59 -0.85,0 -0.9,-0.09 -1.1,-0.99 -1.15,-4.88 -4.09,-9.02 -9.72,-11.36 -0.54,-0.2 -0.74,-0.3 -0.74,-0.65 0,-0.34 0.25,-0.45 0.74,-0.65 5.19,-2.14 8.52,-6.02 9.77,-11.6 0.15,-0.6 0.2,-0.75 1.05,-0.75 0.4,0 0.99,0 0.99,0.6 0,0.1 -0.44,3.24 -2.54,6.57 -1,1.5 -2.44,3.24 -4.58,4.84 z"
         id="path6064" /><path
         style="fill:#000000;stroke-width:0"
         inkscape:connector-curvature="0"
         d="m 655.91,421.94 0,0.75 -0.01,0.74 -0.02,0.75 -0.03,0.74 -0.05,0.75 -0.06,0.74 -0.07,0.74 -0.1,0.73 -0.11,0.73 -0.14,0.73 -0.16,0.72 -0.19,0.72 -0.22,0.71 -0.24,0.71 -0.28,0.7 -0.15,0.35 -0.16,0.35 c -2.29,4.78 -6.37,5.58 -8.47,5.58 -2.98,0 -6.62,-1.3 -8.67,-5.93 -1.59,-3.44 -1.84,-7.32 -1.84,-11.31 0,-3.74 0.2,-8.22 2.24,-12.01 2.15,-4.03 5.78,-5.03 8.22,-5.03 l 0,1.1 c -1.94,0 -4.88,1.25 -5.78,6.03 -0.54,2.99 -0.54,7.57 -0.54,10.51 0,3.19 0,6.47 0.4,9.16 0.94,5.93 4.68,6.38 5.92,6.38 1.65,0 4.94,-0.9 5.88,-5.83 0.5,-2.79 0.5,-6.57 0.5,-9.71 0,-3.74 0,-7.13 -0.55,-10.31 -0.75,-4.73 -3.58,-6.23 -5.83,-6.23 l 0,0 0,-1.1 c 2.69,0 6.48,1.05 8.67,5.78 1.59,3.44 1.84,7.32 1.84,11.26 z"
         id="path6066" /><path
         style="fill:#000000;stroke-width:0"
         inkscape:connector-curvature="0"
         d="m 689.38,417.46 13.89,0 c 0.7,0 1.64,0 1.64,0.99 0,1 -0.94,1 -1.64,1 l -13.89,0 0,13.95 c 0,0.69 0,1.64 -1,1.64 -1,0 -1,-0.95 -1,-1.64 l 0,-13.95 -13.95,0 c -0.7,0 -1.64,0 -1.64,-1 0,-0.99 0.94,-0.99 1.64,-0.99 l 13.95,0 0,-13.95 c 0,-0.7 0,-1.64 1,-1.64 1,0 1,0.94 1,1.64 z"
         id="path6068" /><path
         style="fill:#000000;stroke-width:0"
         inkscape:connector-curvature="0"
         d="m 741.91,421.94 0,0.75 -0.01,0.74 -0.02,0.75 -0.03,0.74 -0.05,0.75 -0.06,0.74 -0.07,0.74 -0.1,0.73 -0.11,0.73 -0.14,0.73 -0.16,0.72 -0.19,0.72 -0.22,0.71 -0.24,0.71 -0.28,0.7 -0.15,0.35 -0.16,0.35 c -2.29,4.78 -6.37,5.58 -8.47,5.58 -2.98,0 -6.62,-1.3 -8.67,-5.93 -1.59,-3.44 -1.84,-7.32 -1.84,-11.31 0,-3.74 0.2,-8.22 2.24,-12.01 2.15,-4.03 5.78,-5.03 8.22,-5.03 l 0,1.1 c -1.94,0 -4.88,1.25 -5.78,6.03 -0.54,2.99 -0.54,7.57 -0.54,10.51 0,3.19 0,6.47 0.4,9.16 0.94,5.93 4.68,6.38 5.92,6.38 1.65,0 4.94,-0.9 5.88,-5.83 0.5,-2.79 0.5,-6.57 0.5,-9.71 0,-3.74 0,-7.13 -0.55,-10.31 -0.75,-4.73 -3.58,-6.23 -5.83,-6.23 l 0,0 0,-1.1 c 2.69,0 6.48,1.05 8.67,5.78 1.59,3.44 1.84,7.32 1.84,11.26 z"
         id="path6070" /><path
         style="fill:#000000;stroke-width:0"
         inkscape:connector-curvature="0"
         d="m 754.11,406.05 0,0.31 -0.01,0.29 -0.02,0.29 -0.02,0.28 -0.04,0.27 -0.03,0.26 -0.05,0.26 -0.05,0.24 -0.06,0.24 -0.07,0.23 -0.07,0.22 -0.07,0.21 -0.09,0.2 -0.09,0.19 -0.09,0.18 -0.1,0.18 -0.11,0.16 -0.11,0.15 -0.12,0.15 -0.12,0.13 -0.13,0.13 -0.13,0.11 -0.14,0.1 -0.15,0.1 -0.15,0.08 -0.15,0.07 -0.16,0.06 -0.16,0.05 -0.17,0.04 -0.17,0.03 -0.17,0.02 -0.18,0 c -1.65,0 -2.65,-1.24 -2.65,-2.64 0,-1.34 1,-2.64 2.65,-2.64 0.59,0 1.24,0.2 1.74,0.65 0.15,0.1 0.2,0.15 0.25,0.15 0.05,0 0.1,-0.05 0.1,-0.75 0,-3.69 -1.75,-6.67 -3.39,-8.32 -0.55,-0.55 -0.55,-0.65 -0.55,-0.8 0,-0.34 0.25,-0.54 0.5,-0.54 0.55,0 4.53,3.83 4.53,9.66 z"
         id="path6072" /><path
         style="fill:#000000;stroke-width:0"
         inkscape:connector-curvature="0"
         d="m 780.65,437.88 0,0.05 -0.01,0.06 0,0.05 0,0.05 0,0.05 0,0.05 0,0.04 0,0.05 0,0.04 0,0.04 0,0.04 0,0.04 0,0.04 -0.01,0.04 0,0.03 0,0.04 -0.01,0.03 0,0.03 -0.01,0.06 -0.01,0.05 -0.02,0.05 -0.01,0.05 -0.02,0.04 -0.02,0.04 -0.03,0.04 -0.03,0.03 -0.03,0.02 -0.03,0.03 -0.04,0.02 -0.05,0.02 -0.02,0.01 -0.03,0.01 -0.02,0 -0.03,0.01 -0.03,0.01 -0.03,0 -0.03,0.01 -0.03,0 -0.03,0.01 -0.04,0 -0.04,0 -0.03,0 -0.04,0.01 -0.04,0 -0.04,0 -0.05,0 -0.04,0 -0.05,0 -0.05,0.01 -0.05,0 -0.05,0 -0.05,0 c -3.09,-3.19 -7.47,-3.19 -9.07,-3.19 l 0,-1.55 c 1,0 3.94,0 6.53,1.3 l 0,-25.81 c 0,-1.79 -0.15,-2.39 -4.63,-2.39 l -1.6,0 0,-1.54 16.14,0 0,1.54 -1.59,0 c -4.49,0 -4.63,0.55 -4.63,2.39 z"
         id="path6074" /><path
         style="fill:#000000;stroke-width:0"
         inkscape:connector-curvature="0"
         d="m 811.56,418.45 0,0.14 -0.01,0.13 -0.02,0.13 -0.02,0.13 -0.03,0.13 -0.04,0.12 -0.04,0.13 -0.05,0.12 -0.05,0.11 -0.06,0.12 -0.06,0.11 -0.07,0.1 -0.08,0.11 -0.07,0.1 -0.09,0.09 -0.09,0.1 -0.09,0.08 -0.09,0.09 -0.1,0.08 -0.11,0.07 -0.1,0.07 -0.11,0.06 -0.12,0.06 -0.11,0.05 -0.12,0.05 -0.13,0.04 -0.12,0.04 -0.13,0.03 -0.13,0.02 -0.13,0.02 -0.13,0.01 -0.13,0 c -1.45,0 -2.65,-1.19 -2.65,-2.64 0,-1.44 1.2,-2.64 2.65,-2.64 1.44,0 2.63,1.2 2.63,2.64 z"
         id="path6076" /><path
         style="fill:#000000;stroke-width:0"
         inkscape:connector-curvature="0"
         d="m 843.49,394.04 0,0.03 0,0.03 -0.01,0.01 0,0.02 0,0.01 -0.01,0.02 0,0.02 -0.01,0.01 -0.01,0.02 -0.01,0.02 -0.01,0.03 -0.01,0.02 -0.02,0.02 -0.02,0.03 -0.02,0.03 -0.02,0.03 -0.03,0.03 -0.03,0.04 -0.01,0.02 -0.02,0.02 -0.02,0.02 -0.02,0.02 -0.02,0.02 -0.02,0.03 -0.02,0.02 -0.02,0.02 -0.02,0.03 -0.03,0.02 -0.02,0.03 -0.03,0.03 -0.02,0.03 -0.03,0.03 -0.03,0.03 -0.03,0.03 -0.03,0.03 -0.03,0.03 -0.04,0.04 -0.03,0.03 -0.04,0.04 -0.03,0.03 -0.04,0.04 -0.04,0.04 c -6.23,6.28 -7.82,15.69 -7.82,23.31 0,8.67 1.9,17.34 8.02,23.57 0.65,0.59 0.65,0.69 0.65,0.84 0,0.35 -0.2,0.5 -0.5,0.5 -0.5,0 -4.98,-3.39 -7.92,-9.72 -2.54,-5.47 -3.14,-11 -3.14,-15.19 0,-3.88 0.55,-9.91 3.29,-15.54 2.99,-6.12 7.27,-9.36 7.77,-9.36 0.3,0 0.5,0.15 0.5,0.49 z"
         id="path6078" /><path
         style="fill:#000000;stroke-width:0"
         inkscape:connector-curvature="0"
         d="m 860.65,437.88 0,0.05 -0.01,0.06 0,0.05 0,0.05 0,0.05 0,0.05 0,0.04 0,0.05 0,0.04 0,0.04 0,0.04 0,0.04 0,0.04 -0.01,0.04 0,0.03 0,0.04 -0.01,0.03 0,0.03 -0.01,0.06 -0.01,0.05 -0.02,0.05 -0.01,0.05 -0.02,0.04 -0.02,0.04 -0.03,0.04 -0.03,0.03 -0.03,0.02 -0.03,0.03 -0.04,0.02 -0.05,0.02 -0.02,0.01 -0.03,0.01 -0.02,0 -0.03,0.01 -0.03,0.01 -0.03,0 -0.03,0.01 -0.03,0 -0.03,0.01 -0.04,0 -0.04,0 -0.03,0 -0.04,0.01 -0.04,0 -0.04,0 -0.05,0 -0.04,0 -0.05,0 -0.05,0.01 -0.05,0 -0.05,0 -0.05,0 c -3.09,-3.19 -7.47,-3.19 -9.07,-3.19 l 0,-1.55 c 1,0 3.94,0 6.53,1.3 l 0,-25.81 c 0,-1.79 -0.15,-2.39 -4.63,-2.39 l -1.6,0 0,-1.54 16.14,0 0,1.54 -1.59,0 c -4.49,0 -4.63,0.55 -4.63,2.39 z"
         id="path6080" /><path
         style="fill:#000000;stroke-width:0"
         inkscape:connector-curvature="0"
         d="m 902.38,417.46 13.89,0 c 0.7,0 1.64,0 1.64,0.99 0,1 -0.94,1 -1.64,1 l -13.89,0 0,13.95 c 0,0.69 0,1.64 -1,1.64 -1,0 -1,-0.95 -1,-1.64 l 0,-13.95 -13.95,0 c -0.7,0 -1.64,0 -1.64,-1 0,-0.99 0.94,-0.99 1.64,-0.99 l 13.95,0 0,-13.95 c 0,-0.7 0,-1.64 1,-1.64 1,0 1,0.94 1,1.64 z"
         id="path6082" /><path
         style="fill:#000000;stroke-width:0"
         inkscape:connector-curvature="0"
         d="m 954.91,421.94 0,0.75 -0.01,0.74 -0.02,0.75 -0.03,0.74 -0.05,0.75 -0.06,0.74 -0.07,0.74 -0.1,0.73 -0.11,0.73 -0.14,0.73 -0.16,0.72 -0.19,0.72 -0.22,0.71 -0.24,0.71 -0.28,0.7 -0.15,0.35 -0.16,0.35 c -2.29,4.78 -6.37,5.58 -8.47,5.58 -2.98,0 -6.62,-1.3 -8.67,-5.93 -1.59,-3.44 -1.84,-7.32 -1.84,-11.31 0,-3.74 0.2,-8.22 2.24,-12.01 2.15,-4.03 5.78,-5.03 8.22,-5.03 l 0,1.1 c -1.94,0 -4.88,1.25 -5.78,6.03 -0.54,2.99 -0.54,7.57 -0.54,10.51 0,3.19 0,6.47 0.4,9.16 0.94,5.93 4.68,6.38 5.92,6.38 1.65,0 4.94,-0.9 5.88,-5.83 0.5,-2.79 0.5,-6.57 0.5,-9.71 0,-3.74 0,-7.13 -0.55,-10.31 -0.75,-4.73 -3.58,-6.23 -5.83,-6.23 l 0,0 0,-1.1 c 2.69,0 6.48,1.05 8.67,5.78 1.59,3.44 1.84,7.32 1.84,11.26 z"
         id="path6084" /><path
         style="fill:#000000;stroke-width:0"
         inkscape:connector-curvature="0"
         d="m 967.11,406.05 0,0.31 -0.01,0.29 -0.02,0.29 -0.02,0.28 -0.04,0.27 -0.03,0.26 -0.05,0.26 -0.05,0.24 -0.06,0.24 -0.07,0.23 -0.07,0.22 -0.07,0.21 -0.09,0.2 -0.09,0.19 -0.09,0.18 -0.1,0.18 -0.11,0.16 -0.11,0.15 -0.12,0.15 -0.12,0.13 -0.13,0.13 -0.13,0.11 -0.14,0.1 -0.15,0.1 -0.15,0.08 -0.15,0.07 -0.16,0.06 -0.16,0.05 -0.17,0.04 -0.17,0.03 -0.17,0.02 -0.18,0 c -1.65,0 -2.65,-1.24 -2.65,-2.64 0,-1.34 1,-2.64 2.65,-2.64 0.59,0 1.24,0.2 1.74,0.65 0.15,0.1 0.2,0.15 0.25,0.15 0.05,0 0.1,-0.05 0.1,-0.75 0,-3.69 -1.75,-6.67 -3.39,-8.32 -0.55,-0.55 -0.55,-0.65 -0.55,-0.8 0,-0.34 0.25,-0.54 0.5,-0.54 0.55,0 4.53,3.83 4.53,9.66 z"
         id="path6086" /><path
         style="fill:#000000;stroke-width:0"
         inkscape:connector-curvature="0"
         d="m 997.28,421.84 0,-1.59 c 0,-11.66 -5.18,-13.95 -8.07,-13.95 -0.85,0 -3.53,0.1 -4.88,1.79 2.19,0 2.59,1.45 2.59,2.29 0,1.55 -1.19,2.3 -2.29,2.3 -0.8,0 -2.29,-0.45 -2.29,-2.39 0,-3.34 2.69,-5.39 6.92,-5.39 6.43,0 12.54,6.78 12.54,17.49 0,13.4 -5.77,16.79 -10.2,16.79 -2.74,0 -5.18,-0.9 -7.32,-3.14 -2.04,-2.24 -3.19,-4.34 -3.19,-8.07 0,-6.23 4.39,-11.11 9.96,-11.11 l 0.05,1.14 c -0.79,0 -3.08,0 -4.63,3.14 -0.9,1.84 -0.9,4.34 -0.9,6.78 0,2.69 0,5.03 1.05,6.87 1.35,2.49 3.24,3.14 4.98,3.14 2.3,0 3.94,-1.69 4.79,-3.93 0.59,-1.6 0.79,-4.74 0.79,-7.03 0,-4.13 -1.69,-8.97 -6.08,-8.97 l 0,0 -0.05,-1.14 c 3.04,0 5.09,2.09 6.23,4.98 z"
         id="path6088" /><path
         style="fill:#000000;stroke-width:0"
         inkscape:connector-curvature="0"
         d="m 1024.6,418.45 0,0.14 -0.1,0.13 0,0.13 0,0.13 0,0.13 -0.1,0.12 0,0.13 0,0.12 -0.1,0.11 -0.1,0.12 0,0.11 -0.1,0.1 -0.1,0.11 0,0.1 -0.1,0.09 -0.1,0.1 -0.1,0.08 -0.1,0.09 -0.1,0.08 -0.1,0.07 -0.1,0.07 -0.1,0.06 -0.1,0.06 -0.2,0.05 -0.1,0.05 -0.1,0.04 -0.1,0.04 -0.1,0.03 -0.2,0.02 -0.1,0.02 -0.1,0.01 -0.2,0 c -1.4,0 -2.6,-1.19 -2.6,-2.64 0,-1.44 1.2,-2.64 2.6,-2.64 1.5,0 2.7,1.2 2.7,2.64 z"
         id="path6090" /><path
         style="fill:#000000;stroke-width:0"
         inkscape:connector-curvature="0"
         d="m 1046.3,409.84 5.3,5.12 c 7.8,6.88 10.8,9.57 10.8,14.55 0,5.68 -4.5,9.67 -10.6,9.67 -5.6,0 -9.3,-4.59 -9.3,-9.02 0,-2.79 2.5,-2.79 2.6,-2.79 0.9,0 2.6,0.6 2.6,2.64 0,1.29 -0.9,2.59 -2.6,2.59 -0.4,0 -0.5,0 -0.7,-0.05 1.2,3.24 3.9,5.08 6.8,5.08 4.5,0 6.6,-4.03 6.6,-8.12 0,-3.98 -2.5,-7.92 -5.2,-11.01 l -9.6,-10.66 c -0.5,-0.54 -0.5,-0.64 -0.5,-1.84 l 18.5,0 1.4,8.67 -1.3,0 c -0.2,-1.5 -0.6,-3.69 -1.1,-4.44 -0.3,-0.39 -3.6,-0.39 -4.7,-0.39 z"
         id="path6092" /><path
         style="fill:#000000;stroke-width:0"
         inkscape:connector-curvature="0"
         d="m 1075.1,406.05 0,0.31 0,0.29 0,0.29 0,0.28 -0.1,0.27 0,0.26 -0.1,0.26 0,0.24 -0.1,0.24 0,0.23 -0.1,0.22 -0.1,0.21 -0.1,0.2 -0.1,0.19 -0.1,0.18 -0.1,0.18 -0.1,0.16 -0.1,0.15 -0.1,0.15 -0.1,0.13 -0.1,0.13 -0.2,0.11 -0.1,0.1 -0.2,0.1 -0.1,0.08 -0.2,0.07 -0.1,0.06 -0.2,0.05 -0.1,0.04 -0.2,0.03 -0.2,0.02 -0.2,0 c -1.6,0 -2.6,-1.24 -2.6,-2.64 0,-1.34 1,-2.64 2.6,-2.64 0.6,0 1.3,0.2 1.8,0.65 0.1,0.1 0.2,0.15 0.2,0.15 0.1,0 0.1,-0.05 0.1,-0.75 0,-3.69 -1.7,-6.67 -3.4,-8.32 -0.5,-0.55 -0.5,-0.65 -0.5,-0.8 0,-0.34 0.2,-0.54 0.5,-0.54 0.5,0 4.5,3.83 4.5,9.66 z"
         id="path6094" /><path
         style="fill:#000000;stroke-width:0"
         inkscape:connector-curvature="0"
         d="m 1093.6,422.34 0,1.2 c 0,12.6 6.2,14.39 8.7,14.39 1.2,0 3.3,-0.3 4.4,-1.99 -0.8,0 -2.8,0 -2.8,-2.24 0,-1.55 1.2,-2.29 2.3,-2.29 0.8,0 2.3,0.44 2.3,2.39 0,2.99 -2.2,5.38 -6.3,5.38 -6.4,0 -13.1,-6.43 -13.1,-17.44 0,-13.3 5.8,-16.84 10.4,-16.84 5.5,0 10.3,4.69 10.3,11.26 0,6.33 -4.5,11.11 -10,11.11 l 0,-1.15 c 0.8,0 3,0 4.6,-3.08 0.9,-1.85 0.9,-4.39 0.9,-6.83 0,-2.39 0,-4.88 -0.9,-6.67 -1.5,-2.99 -3.7,-3.24 -4.9,-3.24 l 0,0 c -3.1,0 -4.6,2.99 -4.9,3.74 -0.9,2.34 -0.9,6.32 -0.9,7.22 0,3.88 1.6,8.86 6.1,8.86 l 0,1.15 c -3.4,0 -5.2,-2.54 -6.2,-4.93 z"
         id="path6096" /><path
         style="fill:#000000;stroke-width:0"
         inkscape:connector-curvature="0"
         d="m 1155.8,417.46 0.2,0 0.1,0 0.2,0 0.1,0.01 0.1,0 0,0.01 0.1,0.01 0.1,0.01 0,0.01 0.1,0.01 0.1,0.02 0.1,0.02 0,0.02 0.1,0.03 0,0.02 0.1,0.04 0,0.03 0.1,0.04 0,0.04 0.1,0.05 0,0.05 0,0.02 0.1,0.03 0,0.03 0,0.03 0,0.03 0,0.04 0,0.03 0,0.03 0,0.04 0,0.04 0.1,0.04 0,0.04 0,0.04 0,0.04 0,0.05 0,0.04 c 0,1 -0.9,1 -1.8,1 l -26.9,0 c -0.9,0 -1.8,0 -1.8,-1 0,-0.99 0.9,-0.99 1.8,-0.99 z"
         id="path6098" /><path
         style="fill:#000000;stroke-width:0"
         inkscape:connector-curvature="0"
         d="m 1195.9,421.94 0,0.75 0,0.74 0,0.75 -0.1,0.74 0,0.75 -0.1,0.74 0,0.74 -0.1,0.73 -0.1,0.73 -0.2,0.73 -0.1,0.72 -0.2,0.72 -0.3,0.71 -0.2,0.71 -0.3,0.7 -0.1,0.35 -0.2,0.35 c -2.3,4.78 -6.3,5.58 -8.5,5.58 -2.9,0 -6.6,-1.3 -8.6,-5.93 -1.6,-3.44 -1.9,-7.32 -1.9,-11.31 0,-3.74 0.2,-8.22 2.3,-12.01 2.1,-4.03 5.8,-5.03 8.2,-5.03 l 0,1.1 c -1.9,0 -4.9,1.25 -5.8,6.03 -0.5,2.99 -0.5,7.57 -0.5,10.51 0,3.19 0,6.47 0.4,9.16 0.9,5.93 4.7,6.38 5.9,6.38 1.7,0 4.9,-0.9 5.9,-5.83 0.5,-2.79 0.5,-6.57 0.5,-9.71 0,-3.74 0,-7.13 -0.6,-10.31 -0.7,-4.73 -3.6,-6.23 -5.8,-6.23 l 0,0 0,-1.1 c 2.7,0 6.5,1.05 8.7,5.78 1.6,3.44 1.8,7.32 1.8,11.26 z"
         id="path6100" /><path
         style="fill:#000000;stroke-width:0"
         inkscape:connector-curvature="0"
         d="m 1212.4,418.45 0,0.37 0,0.39 0,0.39 0,0.41 -0.1,0.84 0,0.88 -0.1,0.92 -0.1,0.94 -0.2,0.98 -0.1,1 -0.2,1.02 -0.2,1.04 -0.3,1.05 -0.3,1.06 -0.4,1.06 -0.4,1.07 -0.2,0.53 -0.2,0.54 -0.2,0.53 -0.3,0.53 c -3,6.12 -7.3,9.36 -7.8,9.36 -0.3,0 -0.5,-0.2 -0.5,-0.5 0,-0.15 0,-0.25 1,-1.15 4.9,-4.92 7.7,-12.85 7.7,-23.26 0,-8.52 -1.8,-17.28 -8,-23.56 -0.7,-0.6 -0.7,-0.69 -0.7,-0.85 0,-0.29 0.2,-0.49 0.5,-0.49 0.5,0 5,3.38 8,9.71 2.5,5.48 3.1,11.01 3.1,15.19 z"
         id="path6102" /></g>  </g>
</svg>
