<?xml version="1.0" encoding="UTF-8" standalone="no"?>
<!-- Created with Inkscape (http://www.inkscape.org/) -->

<svg
   xmlns:dc="http://purl.org/dc/elements/1.1/"
   xmlns:cc="http://creativecommons.org/ns#"
   xmlns:rdf="http://www.w3.org/1999/02/22-rdf-syntax-ns#"
   xmlns:svg="http://www.w3.org/2000/svg"
   xmlns="http://www.w3.org/2000/svg"
   xmlns:sodipodi="http://sodipodi.sourceforge.net/DTD/sodipodi-0.dtd"
   xmlns:inkscape="http://www.inkscape.org/namespaces/inkscape"
   width="210mm"
   height="297mm"
   viewBox="0 0 744.09448819 1052.3622047"
   id="svg6448"
   version="1.1"
   inkscape:version="0.91 r13725"
   sodipodi:docname="propagation_linear_dyna_expected.svg"
   inkscape:export-filename="/home/paul/Documents/stage/diapo/propagation_linear_dyna_expected_2.png"
   inkscape:export-xdpi="145"
   inkscape:export-ydpi="145">
  <sodipodi:namedview
     id="base"
     pagecolor="#ffffff"
     bordercolor="#666666"
     borderopacity="1.0"
     inkscape:pageopacity="0.0"
     inkscape:pageshadow="2"
     inkscape:zoom="0.7"
     inkscape:cx="130.88584"
     inkscape:cy="533.48897"
     inkscape:document-units="px"
     inkscape:current-layer="layer1"
     showgrid="false"
     inkscape:window-width="1920"
     inkscape:window-height="1016"
     inkscape:window-x="0"
     inkscape:window-y="27"
     inkscape:window-maximized="1" />
  <defs
     id="defs6450">
    <marker
       inkscape:isstock="true"
       style="overflow:visible;"
       id="marker4348"
       refX="0.0"
       refY="0.0"
       orient="auto"
       inkscape:stockid="Arrow1Send">
      <path
         transform="scale(0.2) rotate(180) translate(6,0)"
         style="fill-rule:evenodd;stroke:#770b2f;stroke-width:1pt;stroke-opacity:1;fill:#770b2f;fill-opacity:1"
         d="M 0.0,0.0 L 5.0,-5.0 L -12.5,0.0 L 5.0,5.0 L 0.0,0.0 z "
         id="path4350" />
    </marker>
    <marker
       inkscape:stockid="Arrow1Send"
       orient="auto"
       refY="0.0"
       refX="0.0"
       id="marker4342"
       style="overflow:visible;"
       inkscape:isstock="true">
      <path
         id="path4344"
         d="M 0.0,0.0 L 5.0,-5.0 L -12.5,0.0 L 5.0,5.0 L 0.0,0.0 z "
         style="fill-rule:evenodd;stroke:#770b2f;stroke-width:1pt;stroke-opacity:1;fill:#770b2f;fill-opacity:1"
         transform="scale(0.2) rotate(180) translate(6,0)" />
    </marker>
    <marker
       inkscape:stockid="Arrow1Send"
       orient="auto"
       refY="0.0"
       refX="0.0"
       id="marker4336"
       style="overflow:visible;"
       inkscape:isstock="true"
       inkscape:collect="always">
      <path
         id="path4338"
         d="M 0.0,0.0 L 5.0,-5.0 L -12.5,0.0 L 5.0,5.0 L 0.0,0.0 z "
         style="fill-rule:evenodd;stroke:#770b2f;stroke-width:1pt;stroke-opacity:1;fill:#770b2f;fill-opacity:1"
         transform="scale(0.2) rotate(180) translate(6,0)" />
    </marker>
    <marker
       inkscape:isstock="true"
       style="overflow:visible;"
       id="marker8481"
       refX="0.0"
       refY="0.0"
       orient="auto"
       inkscape:stockid="Arrow1Send"
       inkscape:collect="always">
      <path
         transform="scale(0.2) rotate(180) translate(6,0)"
         style="fill-rule:evenodd;stroke:#770b2f;stroke-width:1pt;stroke-opacity:1;fill:#770b2f;fill-opacity:1"
         d="M 0.0,0.0 L 5.0,-5.0 L -12.5,0.0 L 5.0,5.0 L 0.0,0.0 z "
         id="path8483" />
    </marker>
    <marker
       inkscape:isstock="true"
       style="overflow:visible;"
       id="marker8423"
       refX="0.0"
       refY="0.0"
       orient="auto"
       inkscape:stockid="Arrow1Send"
       inkscape:collect="always">
      <path
         transform="scale(0.2) rotate(180) translate(6,0)"
         style="fill-rule:evenodd;stroke:#770b2f;stroke-width:1pt;stroke-opacity:1;fill:#770b2f;fill-opacity:1"
         d="M 0.0,0.0 L 5.0,-5.0 L -12.5,0.0 L 5.0,5.0 L 0.0,0.0 z "
         id="path8425" />
    </marker>
    <marker
       inkscape:stockid="Arrow1Send"
       orient="auto"
       refY="0.0"
       refX="0.0"
       id="marker8365"
       style="overflow:visible;"
       inkscape:isstock="true"
       inkscape:collect="always">
      <path
         id="path8367"
         d="M 0.0,0.0 L 5.0,-5.0 L -12.5,0.0 L 5.0,5.0 L 0.0,0.0 z "
         style="fill-rule:evenodd;stroke:#770b2f;stroke-width:1pt;stroke-opacity:1;fill:#770b2f;fill-opacity:1"
         transform="scale(0.2) rotate(180) translate(6,0)" />
    </marker>
    <marker
       inkscape:stockid="Arrow1Send"
       orient="auto"
       refY="0.0"
       refX="0.0"
       id="marker8301"
       style="overflow:visible;"
       inkscape:isstock="true">
      <path
         id="path8303"
         d="M 0.0,0.0 L 5.0,-5.0 L -12.5,0.0 L 5.0,5.0 L 0.0,0.0 z "
         style="fill-rule:evenodd;stroke:#101735;stroke-width:1pt;stroke-opacity:1;fill:#101735;fill-opacity:1"
         transform="scale(0.2) rotate(180) translate(6,0)" />
    </marker>
    <marker
       inkscape:stockid="Arrow1Send"
       orient="auto"
       refY="0.0"
       refX="0.0"
       id="marker8249"
       style="overflow:visible;"
       inkscape:isstock="true">
      <path
         id="path8251"
         d="M 0.0,0.0 L 5.0,-5.0 L -12.5,0.0 L 5.0,5.0 L 0.0,0.0 z "
         style="fill-rule:evenodd;stroke:#101735;stroke-width:1pt;stroke-opacity:1;fill:#101735;fill-opacity:1"
         transform="scale(0.2) rotate(180) translate(6,0)" />
    </marker>
    <marker
       inkscape:isstock="true"
       style="overflow:visible;"
       id="marker8191"
       refX="0.0"
       refY="0.0"
       orient="auto"
       inkscape:stockid="Arrow1Send">
      <path
         transform="scale(0.2) rotate(180) translate(6,0)"
         style="fill-rule:evenodd;stroke:#101735;stroke-width:1pt;stroke-opacity:1;fill:#101735;fill-opacity:1"
         d="M 0.0,0.0 L 5.0,-5.0 L -12.5,0.0 L 5.0,5.0 L 0.0,0.0 z "
         id="path8193" />
    </marker>
    <marker
       inkscape:stockid="Arrow1Send"
       orient="auto"
       refY="0.0"
       refX="0.0"
       id="Arrow1Send"
       style="overflow:visible;"
       inkscape:isstock="true">
      <path
         id="path7106"
         d="M 0.0,0.0 L 5.0,-5.0 L -12.5,0.0 L 5.0,5.0 L 0.0,0.0 z "
         style="fill-rule:evenodd;stroke:#101735;stroke-width:1pt;stroke-opacity:1;fill:#101735;fill-opacity:1"
         transform="scale(0.2) rotate(180) translate(6,0)" />
    </marker>
    <marker
       inkscape:stockid="Arrow2Send"
       orient="auto"
       refY="0.0"
       refX="0.0"
       id="Arrow2Send"
       style="overflow:visible;"
       inkscape:isstock="true">
      <path
         id="path7124"
         style="fill-rule:evenodd;stroke-width:0.625;stroke-linejoin:round;stroke:#101735;stroke-opacity:1;fill:#101735;fill-opacity:1"
         d="M 8.7185878,4.0337352 L -2.2072895,0.016013256 L 8.7185884,-4.0017078 C 6.9730900,-1.6296469 6.9831476,1.6157441 8.7185878,4.0337352 z "
         transform="scale(0.3) rotate(180) translate(-2.3,0)" />
    </marker>
    <marker
       inkscape:stockid="Arrow2Mend"
       orient="auto"
       refY="0.0"
       refX="0.0"
       id="Arrow2Mend"
       style="overflow:visible;"
       inkscape:isstock="true">
      <path
         id="path7118"
         style="fill-rule:evenodd;stroke-width:0.625;stroke-linejoin:round;stroke:#101735;stroke-opacity:1;fill:#000000;fill-opacity:0"
         d="M 8.7185878,4.0337352 L -2.2072895,0.016013256 L 8.7185884,-4.0017078 C 6.9730900,-1.6296469 6.9831476,1.6157441 8.7185878,4.0337352 z "
         transform="scale(0.6) rotate(180) translate(0,0)" />
    </marker>
  </defs>
  <metadata
     id="metadata6453">
    <rdf:RDF>
      <cc:Work
         rdf:about="">
        <dc:format>image/svg+xml</dc:format>
        <dc:type
           rdf:resource="http://purl.org/dc/dcmitype/StillImage" />
        <dc:title />
      </cc:Work>
    </rdf:RDF>
  </metadata>
  <g
     inkscape:label="Calque 1"
     inkscape:groupmode="layer"
     id="layer1">
    <circle
       style="fill:#f6bea0;fill-opacity:1;stroke:#ed8147;stroke-width:7.97729158;stroke-miterlimit:4;stroke-dasharray:none;stroke-opacity:1"
       id="circle7062"
       cx="491.36816"
       cy="314.66672"
       r="71.795624"
       inkscape:export-filename="/home/paul/Documents/stage/rapport/images/mdp_tree.png"
       inkscape:export-xdpi="145"
       inkscape:export-ydpi="145" />
    <circle
       inkscape:export-ydpi="145"
       inkscape:export-xdpi="145"
       inkscape:export-filename="/home/paul/Documents/stage/rapport/images/mdp_tree.png"
       r="71.795624"
       cy="424.66672"
       cx="564.22534"
       id="circle7064"
       style="fill:#f6bea0;fill-opacity:1;stroke:#ed8147;stroke-width:7.97729158;stroke-miterlimit:4;stroke-dasharray:none;stroke-opacity:1" />
    <circle
       inkscape:export-ydpi="145"
       inkscape:export-xdpi="145"
       inkscape:export-filename="/home/paul/Documents/stage/rapport/images/mdp_tree.png"
       r="71.795624"
       cy="398.95242"
       cx="425.65387"
       id="circle7045"
       style="fill:#f6a0bd;fill-opacity:1;stroke:#aa1044;stroke-width:7.97729158;stroke-miterlimit:4;stroke-dasharray:none;stroke-opacity:1" />
    <circle
       inkscape:export-ydpi="145"
       inkscape:export-xdpi="145"
       inkscape:export-filename="/home/paul/Documents/stage/rapport/images/mdp_tree.png"
       r="71.795624"
       cy="641.80957"
       cx="494.22534"
       id="circle7079"
       style="fill:#f6bea0;fill-opacity:1;stroke:#ed8147;stroke-width:7.97729158;stroke-miterlimit:4;stroke-dasharray:none;stroke-opacity:1" />
    <circle
       style="fill:#f6a0bd;fill-opacity:1;stroke:#aa1044;stroke-width:7.97729158;stroke-miterlimit:4;stroke-dasharray:none;stroke-opacity:1"
       id="circle7056"
       cx="398.51102"
       cy="578.95239"
       r="71.795624"
       inkscape:export-filename="/home/paul/Documents/stage/rapport/images/mdp_tree.png"
       inkscape:export-xdpi="145"
       inkscape:export-ydpi="145" />
    <circle
       style="fill:#f6bea0;fill-opacity:1;stroke:#ed8147;stroke-width:7.97729158;stroke-miterlimit:4;stroke-dasharray:none;stroke-opacity:1"
       id="circle7066"
       cx="575.65393"
       cy="540.38098"
       r="71.795624"
       inkscape:export-filename="/home/paul/Documents/stage/rapport/images/mdp_tree.png"
       inkscape:export-xdpi="145"
       inkscape:export-ydpi="145" />
    <circle
       style="fill:#f6a0bd;fill-opacity:1;stroke:#aa1044;stroke-width:7.97729158;stroke-miterlimit:4;stroke-dasharray:none;stroke-opacity:1"
       id="circle7060"
       cx="487.08246"
       cy="500.38098"
       r="71.795624"
       inkscape:export-filename="/home/paul/Documents/stage/rapport/images/mdp_tree.png"
       inkscape:export-xdpi="145"
       inkscape:export-ydpi="145" />
    <circle
       inkscape:export-ydpi="145"
       inkscape:export-xdpi="145"
       inkscape:export-filename="/home/paul/Documents/stage/rapport/images/mdp_tree.png"
       r="70.838638"
       cy="483.79074"
       cx="379.99994"
       id="circle7017"
       style="fill:#99a4e1;fill-opacity:1;stroke:#1f2c6c;stroke-width:7.87095976;stroke-miterlimit:4;stroke-dasharray:none;stroke-opacity:1" />
    <path
       style="fill:none;fill-opacity:1;fill-rule:evenodd;stroke:#770b2f;stroke-width:10;stroke-linecap:butt;stroke-linejoin:miter;stroke-miterlimit:4;stroke-dasharray:none;stroke-opacity:1;marker-end:url(#marker8423)"
       d="m 500,450.93363 c -24.28571,-54.28572 68.57143,-50 68.57143,-50"
       id="path7081"
       inkscape:connector-curvature="0"
       sodipodi:nodetypes="cc" />
    <path
       inkscape:connector-curvature="0"
       id="path7083"
       d="m 502.85714,543.79078 c -65.71428,28.57143 8.57144,114.28571 8.57144,114.28571"
       style="fill:none;fill-opacity:1;fill-rule:evenodd;stroke:#770b2f;stroke-width:10;stroke-linecap:butt;stroke-linejoin:miter;stroke-miterlimit:4;stroke-dasharray:none;stroke-opacity:1;marker-end:url(#marker8481)"
       sodipodi:nodetypes="cc" />
    <path
       style="fill:none;fill-opacity:1;fill-rule:evenodd;stroke:#770b2f;stroke-width:10;stroke-linecap:butt;stroke-linejoin:miter;stroke-miterlimit:4;stroke-dasharray:none;stroke-opacity:1;marker-end:url(#marker8365)"
       d="m 517.14285,483.79077 c 65.71429,-75.71429 64.28572,57.14286 64.28572,57.14286"
       id="path7085"
       inkscape:connector-curvature="0"
       sodipodi:nodetypes="cc" />
    <g
       id="g4281"
       transform="matrix(0.79269099,0,0,0.79269099,218.09821,227.77692)">
      <g
         word-spacing="normal"
         letter-spacing="normal"
         font-size-adjust="none"
         font-stretch="normal"
         font-weight="normal"
         font-variant="normal"
         font-style="normal"
         stroke-miterlimit="10.433"
         xml:space="preserve"
         transform="matrix(1.0629921,0,0,-1.0629921,-186.02362,789.27165)"
         id="g4283"
         style="font-style:normal;font-variant:normal;font-weight:normal;font-stretch:normal;letter-spacing:normal;word-spacing:normal;text-anchor:start;fill:none;fill-opacity:1;fill-rule:evenodd;stroke:#000000;stroke-linecap:butt;stroke-linejoin:miter;stroke-miterlimit:10.43299961;stroke-dasharray:none;stroke-dashoffset:0;stroke-opacity:1"><path
           id="path4285"
           d="m 469.15,427.77 -0.58,-0.15 -0.57,-0.19 -0.56,-0.21 -0.55,-0.23 -0.54,-0.27 -0.53,-0.28 -0.52,-0.31 -0.5,-0.33 -0.49,-0.35 -0.48,-0.38 -0.46,-0.39 -0.45,-0.41 -0.44,-0.43 -0.41,-0.44 -0.4,-0.46 -0.38,-0.47 -0.36,-0.49 -0.35,-0.5 -0.32,-0.51 -0.31,-0.52 -0.28,-0.53 -0.27,-0.53 -0.24,-0.55 -0.21,-0.55 -0.2,-0.56 -0.17,-0.56 -0.15,-0.56 -0.12,-0.57 -0.09,-0.57 -0.07,-0.57 -0.04,-0.56 -0.02,-0.57 c 0,-4.78 3.19,-8.37 7.87,-8.37 l 0,1.1 c -2.74,0 -4.78,2.09 -4.78,5.88 0,3.14 1.84,12.5 8.57,14.29 l 0,0 c 1.24,-2.29 2.74,-4.98 2.74,-8.56 0,-3.29 -1.9,-11.61 -6.53,-11.61 l 0,-1.1 c 5.83,0 9.97,7.82 9.97,14.7 0,4.53 -2,7.02 -3.69,9.26 -1.79,2.25 -4.73,5.98 -4.73,8.17 0,1.1 0.99,2.29 2.74,2.29 1.49,0 2.49,-0.64 3.54,-1.34 0.99,-0.6 1.99,-1.25 2.73,-1.25 1.25,0 2,1.2 2,2 0,1.09 -0.8,1.24 -2.59,1.64 -2.59,0.55 -3.29,0.55 -4.09,0.55 -3.88,0 -5.68,-2.15 -5.68,-5.13 0,-2.69 1.45,-5.48 2.99,-8.52 z"
           inkscape:connector-curvature="0"
           style="fill:#000000;stroke-width:0" /><path
           id="path4287"
           d="m 493.13,401.82 -0.01,-0.06 -0.02,-0.07 -0.02,-0.07 -0.02,-0.08 -0.02,-0.07 -0.02,-0.08 -0.04,-0.16 -0.04,-0.16 -0.04,-0.16 -0.04,-0.16 -0.02,-0.07 -0.02,-0.08 -0.02,-0.08 -0.01,-0.07 -0.02,-0.07 -0.02,-0.07 -0.01,-0.07 -0.02,-0.06 -0.01,-0.06 -0.01,-0.06 -0.01,-0.05 -0.02,-0.05 0,-0.04 -0.01,-0.04 -0.01,-0.04 0,-0.03 0,-0.02 -0.01,-0.02 c 0,-0.77 0.63,-1.12 1.19,-1.12 0.63,0 1.19,0.46 1.36,0.77 0.17,0.31 0.45,1.43 0.63,2.16 0.17,0.66 0.56,2.27 0.77,3.14 0.2,0.76 0.41,1.53 0.59,2.33 0.38,1.5 0.38,1.57 1.08,2.65 1.12,1.71 2.86,3.7 5.58,3.7 1.95,0 2.05,-1.6 2.05,-2.44 0,-2.09 -1.5,-5.96 -2.05,-7.43 -0.39,-0.97 -0.52,-1.29 -0.52,-1.88 0,-1.85 1.53,-3 3.31,-3 3.48,0 5.02,4.81 5.02,5.33 0,0.46 -0.45,0.46 -0.56,0.46 -0.49,0 -0.52,-0.21 -0.66,-0.59 -0.81,-2.79 -2.3,-4.22 -3.7,-4.22 -0.73,0 -0.87,0.49 -0.87,1.22 0,0.8 0.18,1.25 0.8,2.82 0.42,1.08 1.85,4.78 1.85,6.73 0,0.56 0,2.03 -1.29,3.04 -0.59,0.45 -1.6,0.94 -3.24,0.94 -3.14,0 -5.06,-2.06 -6.18,-3.52 -0.27,2.96 -2.75,3.52 -4.53,3.52 -2.89,0 -4.84,-1.78 -5.89,-3.18 -0.24,2.41 -2.3,3.18 -3.73,3.18 -1.5,0 -2.3,-1.08 -2.76,-1.88 -0.76,-1.3 -1.25,-3.29 -1.25,-3.46 0,-0.45 0.49,-0.45 0.59,-0.45 0.49,0 0.52,0.11 0.77,1.05 0.52,2.05 1.18,3.76 2.54,3.76 0.91,0 1.16,-0.77 1.16,-1.71 0,-0.66 -0.32,-1.95 -0.56,-2.89 -0.25,-0.94 -0.6,-2.37 -0.77,-3.14 l -1.12,-4.46 c -0.14,-0.46 -0.34,-1.33 -0.34,-1.43 0,-0.77 0.62,-1.12 1.18,-1.12 0.63,0 1.19,0.46 1.36,0.77 0.17,0.31 0.45,1.43 0.63,2.16 0.17,0.66 0.56,2.27 0.76,3.14 0.21,0.76 0.43,1.53 0.6,2.33 0.38,1.43 0.45,1.71 1.46,3.14 0.98,1.4 2.62,3.21 5.23,3.21 2.03,0 2.06,-1.78 2.06,-2.44 0,-0.87 -0.1,-1.32 -0.59,-3.28 z"
           inkscape:connector-curvature="0"
           style="fill:#000000;stroke-width:0" /><path
           id="path4289"
           d="m 527.72,412.32 -0.07,0.11 -0.08,0.1 -0.07,0.11 -0.08,0.1 -0.08,0.1 -0.08,0.1 -0.09,0.09 -0.09,0.1 -0.09,0.09 -0.09,0.09 -0.1,0.08 -0.1,0.09 -0.1,0.08 -0.11,0.07 -0.11,0.08 -0.11,0.07 -0.11,0.07 -0.12,0.06 -0.12,0.06 -0.12,0.06 -0.12,0.05 -0.13,0.05 -0.13,0.05 -0.13,0.04 -0.14,0.04 -0.14,0.03 -0.14,0.02 -0.14,0.03 -0.15,0.02 -0.15,0.01 -0.15,0.01 -0.16,0 0,-0.98 c 2.44,0 3.11,-2.65 3.11,-3.03 0,-0.14 -0.07,-0.39 -0.11,-0.49 l -1.64,-6.52 c -0.24,-0.98 -1.01,-1.68 -1.78,-2.34 -0.31,-0.28 -1.7,-1.39 -3.2,-1.39 -1.29,0 -2.55,0.91 -2.55,3.38 0,1.85 1.01,5.69 1.82,7.08 1.6,2.79 3.38,3.31 4.35,3.31 l 0,0.98 c -4.46,0 -8.99,-4.92 -8.99,-9.94 0,-3.38 2.27,-5.79 5.26,-5.79 1.88,0 3.56,1.08 4.95,2.44 0.67,-2.09 2.69,-2.44 3.59,-2.44 1.26,0 2.13,0.77 2.76,1.85 0.77,1.36 1.22,3.35 1.22,3.48 0,0.46 -0.45,0.46 -0.56,0.46 -0.49,0 -0.52,-0.14 -0.76,-1.08 -0.42,-1.68 -1.09,-3.73 -2.55,-3.73 -0.91,0 -1.15,0.76 -1.15,1.71 0,0.59 0.28,1.84 0.52,2.75 0.25,0.94 0.59,2.37 0.77,3.14 l 0.7,2.65 c 0.21,0.91 0.62,2.55 0.62,2.72 0,0.77 -0.62,1.11 -1.18,1.11 -0.59,0 -1.39,-0.41 -1.6,-1.39 z"
           inkscape:connector-curvature="0"
           style="fill:#000000;stroke-width:0" /><path
           id="path4291"
           d="m 543.68,402.7 -0.03,-0.12 -0.04,-0.11 -0.05,-0.12 -0.04,-0.13 -0.06,-0.12 -0.06,-0.13 -0.06,-0.12 -0.07,-0.13 -0.07,-0.13 -0.07,-0.13 -0.08,-0.13 -0.09,-0.12 -0.09,-0.13 -0.09,-0.12 -0.1,-0.12 -0.1,-0.12 -0.11,-0.12 -0.11,-0.11 -0.11,-0.1 -0.12,-0.1 -0.12,-0.1 -0.13,-0.09 -0.13,-0.08 -0.13,-0.08 -0.14,-0.07 -0.14,-0.06 -0.15,-0.05 -0.15,-0.05 -0.15,-0.03 -0.16,-0.03 -0.16,-0.02 -0.16,0 c -0.11,0 -1.16,0 -1.89,0.49 1.43,0.45 1.53,1.7 1.53,1.92 0,0.76 -0.58,1.28 -1.39,1.28 -0.98,0 -1.99,-0.83 -1.99,-2.12 0,-1.75 1.95,-2.55 3.67,-2.55 1.6,0 3.03,1.01 3.9,2.48 0.84,-1.85 2.76,-2.48 4.15,-2.48 4.01,0 6.14,4.36 6.14,5.33 0,0.46 -0.46,0.46 -0.56,0.46 -0.49,0 -0.52,-0.17 -0.67,-0.59 -0.73,-2.41 -2.82,-4.22 -4.77,-4.22 -1.4,0 -2.13,0.94 -2.13,2.26 0,0.91 0.84,4.08 1.82,7.95 0.69,2.69 2.26,3.56 3.41,3.56 0.07,0 1.15,0 1.89,-0.49 -1.12,-0.31 -1.54,-1.29 -1.54,-1.91 0,-0.77 0.59,-1.3 1.4,-1.3 0.8,0 1.95,0.67 1.95,2.13 0,1.96 -2.23,2.55 -3.63,2.55 -1.74,0 -3.14,-1.15 -3.9,-2.48 -0.63,1.43 -2.23,2.48 -4.19,2.48 -3.9,0 -6.13,-4.29 -6.13,-5.34 0,-0.45 0.49,-0.45 0.59,-0.45 0.45,0 0.49,0.14 0.66,0.59 0.87,2.72 3.07,4.22 4.78,4.22 1.15,0 2.09,-0.63 2.09,-2.3 0,-0.7 -0.42,-2.44 -0.73,-3.63 z"
           inkscape:connector-curvature="0"
           style="fill:#000000;stroke-width:0" /></g>    </g>
    <path
       sodipodi:nodetypes="cc"
       style="fill:none;fill-opacity:1;fill-rule:evenodd;stroke:#770b2f;stroke-width:10;stroke-linecap:butt;stroke-linejoin:miter;stroke-miterlimit:4;stroke-dasharray:none;stroke-opacity:1;marker-end:url(#marker4336)"
       d="M 451.42857,536.64792 C 385.71429,565.21935 381.42858,482.3622 381.42858,482.3622"
       id="path4334"
       inkscape:connector-curvature="0" />
    <path
       sodipodi:nodetypes="cc"
       inkscape:connector-curvature="0"
       id="path4340"
       d="M 465.65481,459.01485 C 441.3691,404.72913 436.24145,385.78134 436.24145,385.78134"
       style="fill:none;fill-opacity:1;fill-rule:evenodd;stroke:#770b2f;stroke-width:10;stroke-linecap:butt;stroke-linejoin:miter;stroke-miterlimit:4;stroke-dasharray:none;stroke-opacity:1;marker-end:url(#marker4342)" />
    <path
       inkscape:connector-curvature="0"
       id="path4346"
       d="m 466.58086,545.73929 c -65.71428,28.57143 -68.98984,52.79045 -68.98984,52.79045"
       style="fill:none;fill-opacity:1;fill-rule:evenodd;stroke:#770b2f;stroke-width:10;stroke-linecap:butt;stroke-linejoin:miter;stroke-miterlimit:4;stroke-dasharray:none;stroke-opacity:1;marker-end:url(#marker4348)"
       sodipodi:nodetypes="cc" />
  </g>
</svg>
