<?xml version="1.0" encoding="UTF-8" standalone="no"?>
<!-- Created with Inkscape (http://www.inkscape.org/) -->

<svg
   xmlns:dc="http://purl.org/dc/elements/1.1/"
   xmlns:cc="http://creativecommons.org/ns#"
   xmlns:rdf="http://www.w3.org/1999/02/22-rdf-syntax-ns#"
   xmlns:svg="http://www.w3.org/2000/svg"
   xmlns="http://www.w3.org/2000/svg"
   xmlns:sodipodi="http://sodipodi.sourceforge.net/DTD/sodipodi-0.dtd"
   xmlns:inkscape="http://www.inkscape.org/namespaces/inkscape"
   width="210mm"
   height="297mm"
   viewBox="0 0 744.09448819 1052.3622047"
   id="svg2"
   version="1.1"
   inkscape:version="0.91 r13725"
   sodipodi:docname="schema_tiling.svg">
  <defs
     id="defs4" />
  <sodipodi:namedview
     id="base"
     pagecolor="#ffffff"
     bordercolor="#666666"
     borderopacity="1.0"
     inkscape:pageopacity="0.0"
     inkscape:pageshadow="2"
     inkscape:zoom="0.98994949"
     inkscape:cx="195.51584"
     inkscape:cy="615.60078"
     inkscape:document-units="px"
     inkscape:current-layer="layer1"
     showgrid="false"
     inkscape:window-width="1920"
     inkscape:window-height="1016"
     inkscape:window-x="0"
     inkscape:window-y="27"
     inkscape:window-maximized="1" />
  <metadata
     id="metadata7">
    <rdf:RDF>
      <cc:Work
         rdf:about="">
        <dc:format>image/svg+xml</dc:format>
        <dc:type
           rdf:resource="http://purl.org/dc/dcmitype/StillImage" />
        <dc:title></dc:title>
      </cc:Work>
    </rdf:RDF>
  </metadata>
  <g
     inkscape:label="Calque 1"
     inkscape:groupmode="layer"
     id="layer1">
    <rect
       style="fill:#ffffff;fill-rule:evenodd;stroke:#000000;stroke-width:1px;stroke-linecap:butt;stroke-linejoin:miter;stroke-opacity:1"
       id="rect3336"
       width="485.71429"
       height="317.14285"
       x="131.42857"
       y="218.07649" />
    <path
       inkscape:connector-curvature="0"
       id="circle4201"
       d="m 131.42773,218.07617 0,87.27539 a 55.558392,55.558392 0 0 0 0.34766,0.16406 53.538086,53.538086 0 0 1 27.40625,-8.89453 53.538086,53.538086 0 0 1 27.89648,-25.27343 53.538086,53.538086 0 0 1 -8.89453,-29.4961 53.538086,53.538086 0 0 1 5.64063,-23.77539 l -52.39649,0 z m 55.65039,53.27149 a 53.538086,53.538086 0 0 0 16.5586,16.00586 55.558392,55.558392 0 0 0 8.23633,-19.4961 53.538086,53.538086 0 0 0 -5.15039,-0.25781 53.538086,53.538086 0 0 0 -19.64454,3.74805 z m 24.79493,-3.49024 a 53.538086,53.538086 0 0 1 4.46679,0.65625 53.538086,53.538086 0 0 1 39.22852,-17.20312 53.538086,53.538086 0 0 1 5.4043,0.27734 53.538086,53.538086 0 0 1 12.67578,-33.51172 l -75.83789,0 a 55.558392,55.558392 0 0 1 15.33203,38.28516 55.558392,55.558392 0 0 1 -1.26953,11.49609 z m 49.09961,-16.26953 a 53.538086,53.538086 0 0 0 -0.0566,1.13086 53.538086,53.538086 0 0 0 7.83007,27.7832 53.538086,53.538086 0 0 0 13.76758,-21.85351 53.538086,53.538086 0 0 0 -21.54101,-7.06055 z m 21.54101,7.06055 a 53.538086,53.538086 0 0 1 26.1875,40.17383 53.538086,53.538086 0 0 1 2.24024,-1.00196 53.538086,53.538086 0 0 1 -0.0508,-1.4082 53.538086,53.538086 0 0 1 31.59961,-48.76172 53.538086,53.538086 0 0 1 -0.17187,-4.0957 53.538086,53.538086 0 0 1 6.46484,-25.47852 l -69.12109,0 a 53.538086,53.538086 0 0 1 5.59766,23.77539 53.538086,53.538086 0 0 1 -2.7461,16.79688 z m 59.97656,-10.99805 a 53.538086,53.538086 0 0 0 16.53516,34.67188 53.538086,53.538086 0 0 0 8.9668,-29.60352 53.538086,53.538086 0 0 0 -0.91602,-9.71094 53.538086,53.538086 0 0 0 -2.64844,-0.13281 53.538086,53.538086 0 0 0 -21.9375,4.77539 z m 24.58594,-4.64258 a 53.538086,53.538086 0 0 1 50.11328,44.31446 53.538086,53.538086 0 0 1 8.08399,-0.65625 53.538086,53.538086 0 0 1 2.07812,0.10351 53.538086,53.538086 0 0 0 1.44141,-1.0293 53.538086,53.538086 0 0 1 -12.60938,-34.42968 53.538086,53.538086 0 0 1 11.63477,-33.23438 l -72.625,0 a 53.538086,53.538086 0 0 1 11.88281,24.93164 z m 61.7168,42.73242 a 53.538086,53.538086 0 0 0 1.01172,1.15235 53.538086,53.538086 0 0 1 30.74219,13.09375 53.538086,53.538086 0 0 1 2.53515,-2.72071 53.538086,53.538086 0 0 1 -18.38086,-31.89062 53.538086,53.538086 0 0 1 -15.9082,20.36523 z m 15.9082,-20.36523 a 53.538086,53.538086 0 0 0 4.69336,-21.82031 53.538086,53.538086 0 0 0 -0.78906,-9.15039 53.538086,53.538086 0 0 0 -4.69336,21.82031 53.538086,53.538086 0 0 0 0.78906,9.15039 z m 3.9043,-30.9707 a 53.538086,53.538086 0 0 1 11.30273,-16.32813 l -17.02343,0 a 53.538086,53.538086 0 0 1 5.7207,16.32813 z m 14.47656,62.86132 a 53.538086,53.538086 0 0 0 11.53711,7.31446 53.538086,53.538086 0 0 0 37.82031,-21.10742 53.538086,53.538086 0 0 0 -11.98828,-1.41407 53.538086,53.538086 0 0 0 -37.36914,15.20703 z m 49.35742,-13.79296 a 53.538086,53.538086 0 0 1 22.38086,11.08398 53.538086,53.538086 0 0 0 1.04492,-1.12305 53.538086,53.538086 0 0 1 -15.34961,-25.33984 53.538086,53.538086 0 0 1 -8.07617,15.37891 z m 8.07617,-15.37891 a 53.538086,53.538086 0 0 0 2.74415,-16.7832 53.538086,53.538086 0 0 0 -1.85352,-13.88867 53.538086,53.538086 0 0 0 -2.74414,16.7832 53.538086,53.538086 0 0 0 1.85351,13.88867 z m 0.89063,-30.67187 a 53.538086,53.538086 0 0 1 11.37305,-19.34571 l -21.08985,0 a 53.538086,53.538086 0 0 1 9.7168,19.34571 z m 14.45898,56.01171 a 53.538086,53.538086 0 0 0 6.62696,5.27735 53.538086,53.538086 0 0 1 -0.0918,-2.58594 53.538086,53.538086 0 0 1 1.95508,-14.10352 53.538086,53.538086 0 0 1 -8.49024,11.41211 z m 8.49024,-11.41211 a 53.538086,53.538086 0 0 0 4.67773,-11.6914 53.538086,53.538086 0 0 0 -4.67773,11.6914 z m 4.67773,-11.6914 a 53.538086,53.538086 0 0 1 46.90625,-27.74219 53.538086,53.538086 0 0 1 21.20313,4.39844 l 0,-21.86133 a 53.538086,53.538086 0 0 0 -5.50586,-7.04883 l -76.69141,0 a 53.538086,53.538086 0 0 1 16.04297,38.14844 53.538086,53.538086 0 0 1 -1.95508,14.10547 z m -6.54101,28.38086 a 53.538086,53.538086 0 0 0 0.42383,4.34375 53.538086,53.538086 0 0 1 1.51757,2.12109 53.538086,53.538086 0 0 1 3.88672,-3.125 53.538086,53.538086 0 0 1 -5.82812,-3.33984 z m 5.82812,3.33984 a 53.538086,53.538086 0 0 0 23.88086,5.69141 53.538086,53.538086 0 0 0 31.50781,-10.33399 53.538086,53.538086 0 0 0 -23.88086,-5.6914 53.538086,53.538086 0 0 0 -31.50781,10.33398 z m 55.38867,-4.64258 a 53.538086,53.538086 0 0 1 13.4336,9.53125 l 0,-23.73828 a 53.538086,53.538086 0 0 1 -13.4336,14.20703 z m -59.27539,7.76758 a 53.538086,53.538086 0 0 0 -1.05664,0.92774 53.538086,53.538086 0 0 0 10.09571,22.5625 53.538086,53.538086 0 0 0 -9.03907,-23.49024 z m 9.03907,23.49024 a 53.538086,53.538086 0 0 1 0.51562,6.93164 53.538086,53.538086 0 0 1 -15.40039,37.50781 53.538086,53.538086 0 0 1 10.11523,15.65625 53.538086,53.538086 0 0 0 1.49415,1.04883 53.538086,53.538086 0 0 1 29.89648,-9.17969 53.538086,53.538086 0 0 1 29.62891,8.98242 53.538086,53.538086 0 0 0 7.41992,-5.96875 l 0,-38.42578 a 53.538086,53.538086 0 0 1 -21.20313,4.44531 53.538086,53.538086 0 0 1 -42.46679,-20.99804 z m 56.25,60.94726 a 53.538086,53.538086 0 0 1 -29.89454,9.17969 53.538086,53.538086 0 0 1 -29.63085,-8.98242 53.538086,53.538086 0 0 0 -0.79688,0.57031 53.538086,53.538086 0 0 1 3.12891,12.95508 53.538086,53.538086 0 0 1 31.69336,48.83203 53.538086,53.538086 0 0 1 -1.34766,11.73242 53.538086,53.538086 0 0 1 9.79492,-0.93555 53.538086,53.538086 0 0 1 24.47266,5.97657 l 0,-73.33789 a 53.538086,53.538086 0 0 0 -7.41992,-5.99024 z M 582.875,463.90039 a 53.538086,53.538086 0 0 0 -29.66016,16.50977 53.538086,53.538086 0 0 0 18.16407,6.51953 53.538086,53.538086 0 0 0 11.49609,-23.0293 z m -11.49609,23.0293 a 53.538086,53.538086 0 0 1 -24.33399,16.14843 53.538086,53.538086 0 0 1 0.0898,2.53711 53.538086,53.538086 0 0 1 -6.14258,24.8125 53.538086,53.538086 0 0 0 1.54883,4.79102 l 74.60156,0 0,-62.42383 a 53.538086,53.538086 0 0 1 -37.04883,14.91211 53.538086,53.538086 0 0 1 -8.71484,-0.77734 z m -30.38672,43.49804 a 53.538086,53.538086 0 0 1 -1.86133,-13.92382 53.538086,53.538086 0 0 1 1.34766,-11.73243 53.538086,53.538086 0 0 1 -9.79493,0.93555 53.538086,53.538086 0 0 1 -37.02343,-14.94922 53.538086,53.538086 0 0 1 -27.875,17.13867 53.538086,53.538086 0 0 1 -13.66211,27.32227 l 86.04492,0 a 53.538086,53.538086 0 0 0 2.82422,-4.79102 z m -75.20703,-22.53125 a 53.538086,53.538086 0 0 0 0.85546,-9.23437 53.538086,53.538086 0 0 0 -10.3125,-31.47852 53.538086,53.538086 0 0 0 -16.26953,38.43164 53.538086,53.538086 0 0 0 0.0801,2.25586 53.538086,53.538086 0 0 0 12.85156,1.63282 53.538086,53.538086 0 0 0 12.79493,-1.60743 z m -25.64649,-0.0254 a 53.538086,53.538086 0 0 1 -39.74414,-42.07226 53.538086,53.538086 0 0 1 -0.92969,0.0332 53.538086,53.538086 0 0 1 -23.40234,-5.46094 53.538086,53.538086 0 0 1 9.76562,30.71485 53.538086,53.538086 0 0 1 -16.34765,38.5 53.538086,53.538086 0 0 0 4.5625,5.63281 l 74.98633,0 a 53.538086,53.538086 0 0 1 -8.89063,-27.34766 z m -70.6582,21.71485 a 53.538086,53.538086 0 0 1 -9.91602,-30.92383 53.538086,53.538086 0 0 1 16.24414,-38.41211 53.538086,53.538086 0 0 1 -13.1875,-9.20117 53.538086,53.538086 0 0 1 -48.78125,31.58789 53.538086,53.538086 0 0 1 -19.69336,-3.80469 53.538086,53.538086 0 0 1 5.50196,23.55859 53.538086,53.538086 0 0 1 -6.37696,25.29883 53.538086,53.538086 0 0 0 8.7168,7.5293 l 60.51172,0 a 53.538086,53.538086 0 0 0 6.98047,-5.63281 z m -76.20899,-1.89649 a 53.538086,53.538086 0 0 1 -14.51953,-36.60351 53.538086,53.538086 0 0 1 3.49219,-18.83985 53.538086,53.538086 0 0 1 -16.44141,-19.58789 53.538086,53.538086 0 0 0 -10.88671,-3.01367 53.538086,53.538086 0 0 1 -10.33594,1.05469 53.538086,53.538086 0 0 1 -8.80274,-0.78906 53.538086,53.538086 0 0 0 -10.35937,3.16015 53.538086,53.538086 0 0 1 -17.23438,18.93555 53.538086,53.538086 0 0 1 8.58008,29.05859 53.538086,53.538086 0 0 1 -12.33398,34.1543 l 83.89258,0 a 53.538086,53.538086 0 0 0 4.94921,-7.5293 z m -85.08789,-55.68359 a 53.538086,53.538086 0 0 0 -2.97461,-4.15625 53.538086,53.538086 0 0 0 -6.18945,9.08984 53.538086,53.538086 0 0 0 9.16406,-4.93359 z m -9.16406,4.93359 a 53.538086,53.538086 0 0 1 -20.69141,4.2168 53.538086,53.538086 0 0 1 -44.95703,-24.47852 53.538086,53.538086 0 0 0 -1.94336,1.39063 l 0,77.15039 72.41993,0 a 53.538086,53.538086 0 0 1 -11.27539,-32.82813 53.538086,53.538086 0 0 1 6.44726,-25.45117 z m -65.64844,-20.26172 a 53.538086,53.538086 0 0 1 29.85547,-9.15234 53.538086,53.538086 0 0 1 41.98242,20.32422 53.538086,53.538086 0 0 1 20.20899,-14.7793 53.538086,53.538086 0 0 0 2.40234,-5.10351 53.538086,53.538086 0 0 1 -36.77929,-50.80469 53.538086,53.538086 0 0 1 0.13281,-2.65039 53.538086,53.538086 0 0 1 -29.79492,9.10937 53.538086,53.538086 0 0 1 -26.57227,-7.10937 53.538086,53.538086 0 0 0 -3.37891,5.30273 l 0,51.50586 a 53.538086,53.538086 0 0 0 1.94336,3.35742 z m 1.43555,-60.16601 a 53.538086,53.538086 0 0 1 43.52148,-22.43164 53.538086,53.538086 0 0 1 16.75586,2.73437 53.538086,53.538086 0 0 1 1.45704,-3.13672 53.538086,53.538086 0 0 1 -43.35743,-52.53906 53.538086,53.538086 0 0 1 0.87891,-9.38086 55.558392,55.558392 0 0 1 -22.28711,-6.24219 53.538086,53.538086 0 0 0 -0.34766,0.24805 l 0,88.67774 a 53.538086,53.538086 0 0 0 3.37891,2.07031 z M 154.0625,311.7578 a 55.558392,55.558392 0 0 0 3.52148,0.16211 55.558392,55.558392 0 0 0 29.69922,-8.67773 53.538086,53.538086 0 0 0 -25.90429,-6.69727 53.538086,53.538086 0 0 0 -2.19727,0.0762 53.538086,53.538086 0 0 0 -5.11914,15.13672 z m 33.2207,-8.51562 a 53.538086,53.538086 0 0 1 16.22852,13.83398 53.538086,53.538086 0 0 1 -1.48047,-12.22656 53.538086,53.538086 0 0 1 2.74609,-16.79688 53.538086,53.538086 0 0 1 -1.14062,-0.69921 55.558392,55.558392 0 0 1 -16.35352,15.88867 z m 17.49414,-15.18946 a 53.538086,53.538086 0 0 0 26.94532,7.33789 53.538086,53.538086 0 0 0 19.64453,-3.74804 53.538086,53.538086 0 0 0 -35.02735,-23.12891 53.538086,53.538086 0 0 0 -11.5625,19.53906 z m 46.58985,3.58985 a 53.538086,53.538086 0 0 1 8.89258,29.49609 53.538086,53.538086 0 0 1 -5.5,23.48438 53.538086,53.538086 0 0 1 21.57617,9.51367 53.538086,53.538086 0 0 0 1.86133,-0.83399 53.538086,53.538086 0 0 1 -0.40625,-6.02734 53.538086,53.538086 0 0 1 21.92968,-43.13281 53.538086,53.538086 0 0 1 -30.97461,-23.64063 53.538086,53.538086 0 0 1 -17.3789,11.14063 z m 48.35351,12.5 a 53.538086,53.538086 0 0 0 9.33008,1.83789 53.538086,53.538086 0 0 0 0.0566,-1.13086 53.538086,53.538086 0 0 0 -0.40625,-6.02734 53.538086,53.538086 0 0 0 -8.98047,5.32031 z m 9.33008,1.83789 a 53.538086,53.538086 0 0 1 -30.85351,47.32226 53.538086,53.538086 0 0 0 0.30078,2.47461 53.538086,53.538086 0 0 1 16.40625,23.26758 53.538086,53.538086 0 0 1 18.93554,-3.48437 53.538086,53.538086 0 0 1 36.84571,14.7832 53.538086,53.538086 0 0 1 26.51172,-26.66602 53.538086,53.538086 0 0 1 -4.6836,-14.38281 53.538086,53.538086 0 0 1 -8.08594,0.65625 53.538086,53.538086 0 0 1 -52.62109,-43.82617 53.538086,53.538086 0 0 1 -2.75586,-0.14453 z m 2.75586,0.14453 a 53.538086,53.538086 0 0 0 2.64648,0.13281 53.538086,53.538086 0 0 0 31.60938,-10.40625 53.538086,53.538086 0 0 0 -14.73242,-2.11328 53.538086,53.538086 0 0 0 -20.38867,4.08203 53.538086,53.538086 0 0 0 0.86523,8.30469 z m 34.25586,-10.27344 a 53.538086,53.538086 0 0 1 30.35547,22.5625 53.538086,53.538086 0 0 1 17.36328,-21.42383 53.538086,53.538086 0 0 1 -34.75586,-14.66796 53.538086,53.538086 0 0 1 -12.96289,13.52929 z m 47.71875,1.13867 a 53.538086,53.538086 0 0 0 2.07617,0.10352 53.538086,53.538086 0 0 0 21.9375,-4.77344 53.538086,53.538086 0 0 0 -0.60547,-4.99804 53.538086,53.538086 0 0 0 -23.4082,9.66796 z m 24.01367,-4.66992 a 53.538086,53.538086 0 0 1 0.17188,4.0918 53.538086,53.538086 0 0 1 -33.14844,49.45703 53.538086,53.538086 0 0 1 0.0488,1.40625 53.538086,53.538086 0 0 1 -1.97071,14.17773 53.538086,53.538086 0 0 1 16.56836,-2.69726 53.538086,53.538086 0 0 1 48.07618,30.06445 53.538086,53.538086 0 0 0 3.29101,-1.63281 53.538086,53.538086 0 0 1 10.45117,-15.1582 53.538086,53.538086 0 0 1 -14.37109,-36.43164 53.538086,53.538086 0 0 1 10.82031,-32.16211 53.538086,53.538086 0 0 1 -27.92773,-16.54297 53.538086,53.538086 0 0 0 -2.45313,-0.12305 53.538086,53.538086 0 0 1 -9.55664,5.55078 z m 39.9375,11.11524 a 53.538086,53.538086 0 0 0 7.45703,1.1875 53.538086,53.538086 0 0 0 -4.64257,-4.63672 53.538086,53.538086 0 0 0 -2.81446,3.44922 z m 7.45703,1.1875 a 53.538086,53.538086 0 0 1 13.62305,35.58203 53.538086,53.538086 0 0 1 -4.95117,22.34961 53.538086,53.538086 0 0 1 25.55664,-6.55469 53.538086,53.538086 0 0 1 31.125,10.03125 53.538086,53.538086 0 0 1 -4.25391,-20.77539 53.538086,53.538086 0 0 1 17.08789,-39.15234 53.538086,53.538086 0 0 1 -0.46093,-3.04883 53.538086,53.538086 0 0 0 -8.09571,-8.49805 53.538086,53.538086 0 0 1 -37.37109,15.20703 53.538086,53.538086 0 0 1 -22.83008,-5.18359 53.538086,53.538086 0 0 1 -4.89844,0.26953 53.538086,53.538086 0 0 1 -4.53125,-0.22656 z m 65.35352,61.4082 a 53.538086,53.538086 0 0 0 5.30273,9.64453 53.538086,53.538086 0 0 0 2.74219,-2.57031 53.538086,53.538086 0 0 0 -8.04492,-7.07422 z m 5.30273,9.64453 a 53.538086,53.538086 0 0 1 -35.39453,13.45899 53.538086,53.538086 0 0 1 -35.27344,-13.31836 53.538086,53.538086 0 0 1 -14.3457,11.37109 53.538086,53.538086 0 0 0 -1.9043,4.73242 53.538086,53.538086 0 0 1 3.13086,10.54102 53.538086,53.538086 0 0 1 0.93164,-0.0332 53.538086,53.538086 0 0 1 37.02539,14.95118 53.538086,53.538086 0 0 1 40.66797,-18.74805 53.538086,53.538086 0 0 1 8.71289,0.77539 53.538086,53.538086 0 0 1 10.00391,-9.02539 53.538086,53.538086 0 0 0 -0.69727,-1.61914 53.538086,53.538086 0 0 1 -12.85742,-13.08594 z m 3.55078,23.73047 a 53.538086,53.538086 0 0 0 -12.84179,34.76172 53.538086,53.538086 0 0 0 3.55859,19.15625 53.538086,53.538086 0 0 0 22.84375,-43.78711 53.538086,53.538086 0 0 0 -0.42773,-6.20117 53.538086,53.538086 0 0 0 -13.13282,-3.92969 z m -9.2832,53.91797 a 53.538086,53.538086 0 0 1 -10.27734,5.6582 53.538086,53.538086 0 0 1 25.4375,32.70899 53.538086,53.538086 0 0 1 7.9414,-11.28125 53.538086,53.538086 0 0 1 -23.10156,-27.08594 z m 15.16016,38.36719 a 53.538086,53.538086 0 0 0 -4.79492,13.08007 53.538086,53.538086 0 0 0 6.5664,-1.69336 53.538086,53.538086 0 0 0 -1.77148,-11.38671 z m -25.4375,-32.70899 a 53.538086,53.538086 0 0 0 -13.38672,-5.27148 53.538086,53.538086 0 0 1 0.0801,2.25586 53.538086,53.538086 0 0 1 -0.46094,6.62695 53.538086,53.538086 0 0 0 13.76758,-3.61133 z m -13.76758,3.61133 a 53.538086,53.538086 0 0 1 -6.65039,0.48242 53.538086,53.538086 0 0 1 -21.8457,-4.70898 53.538086,53.538086 0 0 0 16.08789,32.39062 53.538086,53.538086 0 0 0 12.4082,-28.16406 z m -28.49609,-4.22656 a 53.538086,53.538086 0 0 1 -0.33594,-3.66016 53.538086,53.538086 0 0 0 -4.05469,1.46485 53.538086,53.538086 0 0 0 4.39063,2.19531 z m -4.39063,-2.19531 a 53.538086,53.538086 0 0 1 -23.22656,-26.25977 53.538086,53.538086 0 0 1 -13.19727,20.79297 53.538086,53.538086 0 0 1 19.57031,16.47851 53.538086,53.538086 0 0 1 16.85352,-11.01171 z m -36.42383,-5.4668 a 53.538086,53.538086 0 0 0 -23.65625,-5.58203 53.538086,53.538086 0 0 0 -12.79492,1.60742 53.538086,53.538086 0 0 0 -0.85352,9.23633 53.538086,53.538086 0 0 0 0.94141,9.83203 53.538086,53.538086 0 0 0 36.36328,-15.09375 z m -36.45117,-3.97461 a 53.538086,53.538086 0 0 1 46.03516,-43.82031 53.538086,53.538086 0 0 1 2.58593,-10.99024 53.538086,53.538086 0 0 0 -1.38671,-3.09961 53.538086,53.538086 0 0 1 -22.26758,4.92188 53.538086,53.538086 0 0 1 -45.08594,-24.67383 53.538086,53.538086 0 0 1 -24.97656,26.10352 53.538086,53.538086 0 0 1 12.16797,33.92578 53.538086,53.538086 0 0 1 -3.49219,18.83984 53.538086,53.538086 0 0 1 12.02344,12.22266 53.538086,53.538086 0 0 1 24.39648,-13.42969 z m -24.39648,13.42969 a 53.538086,53.538086 0 0 0 -0.10157,0.0898 53.538086,53.538086 0 0 0 0.25391,0.12109 53.538086,53.538086 0 0 0 -0.15234,-0.21093 z M 363.88672,447.9375 a 53.538086,53.538086 0 0 0 -8.19531,-4.92969 53.538086,53.538086 0 0 0 6.92968,8.04102 53.538086,53.538086 0 0 0 1.26563,-3.11133 z m -8.19531,-4.92969 a 53.538086,53.538086 0 0 1 -9.76563,-30.71484 53.538086,53.538086 0 0 1 1.97266,-14.17578 53.538086,53.538086 0 0 1 -16.56836,2.69726 53.538086,53.538086 0 0 1 -33.91992,-12.15625 53.538086,53.538086 0 0 1 0.70703,8.50391 53.538086,53.538086 0 0 1 -34.60157,50.05273 53.538086,53.538086 0 0 0 2.28711,5.44336 53.538086,53.538086 0 0 1 19.32422,13.12696 53.538086,53.538086 0 0 1 47.16211,-28.23828 53.538086,53.538086 0 0 1 23.40235,5.46093 z m -70.56446,22.77735 a 53.538086,53.538086 0 0 0 -2.88281,6.46093 53.538086,53.538086 0 0 0 11.90234,6.58594 53.538086,53.538086 0 0 0 -9.01953,-13.04687 z m -21.61133,-18.57032 a 53.538086,53.538086 0 0 1 -3.21289,-18.11718 53.538086,53.538086 0 0 1 29.66016,-47.89454 53.538086,53.538086 0 0 1 -11.46484,-25.42578 53.538086,53.538086 0 0 0 -2.16211,-1.64062 53.538086,53.538086 0 0 1 -20.76758,4.25 53.538086,53.538086 0 0 1 -9.61719,-0.91211 53.538086,53.538086 0 0 1 -37.03125,17.12305 53.538086,53.538086 0 0 1 -4.01953,6.59179 53.538086,53.538086 0 0 1 26.96484,46.42969 53.538086,53.538086 0 0 1 -4.04492,20.34766 53.538086,53.538086 0 0 0 7.95703,1.94336 53.538086,53.538086 0 0 1 10.33204,-1.05664 53.538086,53.538086 0 0 1 8.80664,0.79101 53.538086,53.538086 0 0 0 8.5996,-2.42969 z m -58.61523,-66.02539 a 53.538086,53.538086 0 0 0 -9.81641,-4.375 53.538086,53.538086 0 0 0 -3.91015,17.69727 53.538086,53.538086 0 0 0 13.72656,-13.32227 z m 4.01953,-6.59179 a 53.538086,53.538086 0 0 0 5.86524,-21.86719 53.538086,53.538086 0 0 0 -18.24414,20.94726 53.538086,53.538086 0 0 0 10.18164,0.99805 53.538086,53.538086 0 0 0 2.19726,-0.0781 z m 5.86524,-21.86719 a 53.538086,53.538086 0 0 1 9.02539,-4.85547 53.538086,53.538086 0 0 1 -10.37305,-10.01562 53.538086,53.538086 0 0 1 1.48047,12.22265 53.538086,53.538086 0 0 1 -0.13281,2.64844 z m -1.34766,-14.87109 a 53.538086,53.538086 0 0 0 -9.92578,-20.78321 53.538086,53.538086 0 0 0 9.92578,20.78321 z m 10.37305,10.01562 a 53.538086,53.538086 0 0 0 22.14062,9.59961 53.538086,53.538086 0 0 0 8.8086,-12.85156 53.538086,53.538086 0 0 0 -10.17969,-1 53.538086,53.538086 0 0 0 -20.76953,4.25195 z m 66.15234,33.32812 a 53.538086,53.538086 0 0 0 7.44727,7.45508 53.538086,53.538086 0 0 0 -2.50586,-9.61328 53.538086,53.538086 0 0 0 -4.94141,2.1582 z m 57.93555,16.91407 a 53.538086,53.538086 0 0 0 7.3125,-2.94531 53.538086,53.538086 0 0 0 -4.52539,-4.82813 53.538086,53.538086 0 0 0 -2.78711,7.77344 z m 32.28906,-29.04883 a 53.538086,53.538086 0 0 0 2.70898,-7.61524 53.538086,53.538086 0 0 0 -5.69921,2.22461 53.538086,53.538086 0 0 0 2.99023,5.39063 z m 66.1543,33.8418 a 53.538086,53.538086 0 0 0 -0.46094,6.62695 53.538086,53.538086 0 0 0 4.07422,20.375 53.538086,53.538086 0 0 0 3.04687,-17.61914 53.538086,53.538086 0 0 0 -0.94336,-9.83203 53.538086,53.538086 0 0 0 -5.71679,0.44922 z m 30.89453,51.79687 a 53.538086,53.538086 0 0 1 16.36133,-2.62891 53.538086,53.538086 0 0 1 12.85156,1.63282 53.538086,53.538086 0 0 0 -16.4336,-36.33203 53.538086,53.538086 0 0 0 -12.86914,34.78906 53.538086,53.538086 0 0 0 0.0899,2.53906 z m -12.0586,-78.89062 a 53.538086,53.538086 0 0 0 8.6836,-13.26172 53.538086,53.538086 0 0 0 -12.57813,9.47461 53.538086,53.538086 0 0 0 3.89453,3.78711 z m -80.35937,-29.94727 a 53.538086,53.538086 0 0 0 -8.40039,-27.45508 53.538086,53.538086 0 0 0 -4.68164,21.79102 53.538086,53.538086 0 0 0 0.77734,9.08984 53.538086,53.538086 0 0 0 12.30469,-3.42578 z"
       style="fill:none;stroke:#000000;stroke-width:3;stroke-miterlimit:4;stroke-dasharray:none" />
  </g>
</svg>
